<?xml version="1.0" encoding="utf-8"?>
<svg id="master-artboard" viewBox="0 0 649.4172973632812 164.90858459472656" version="1.1" xmlns="http://www.w3.org/2000/svg" x="0px" y="0px" style="enable-background:new 0 0 649 485;" width="649.4172973632812px" height="164.90858459472656px"><rect id="ee-background" x="0" y="0" width="649.4172973632812" height="164.90858459472656" style="fill: white; fill-opacity: 0; pointer-events: none;"/>



<path class="st3" d="M243,347c-0.1,0,0.1,0.2,0.1,0.2c-0.1,0,0.1,0.1,0.1,0.1c-0.1,0,0.1,0.2,0.1,0.2c-0.1,0.1,0.1,0.1,0.1,0.1&#10;&#9;&#9;c-0.1,0.1,0.1,0.1,0.1,0.1c-0.1,0.1,0.1,0.1,0.1,0.1c-0.1,0.1,0.1,0.1,0.1,0.1c0,0.1,0.1,0.1,0.1,0.1c0,0.1,0.2,0.1,0.2,0.1&#10;&#9;&#9;c0,0.1,0.2,0.1,0.2,0.1c0,0-0.4,0.1-0.6,0.1c-0.2,0-0.1,0.2-0.1,0.2c-0.2,0.1,0,0.2,0,0.2c-0.2,0.1,0,0.2,0,0.2&#10;&#9;&#9;c-0.1,0.1,0.1,0.2,0.1,0.2c0,0.2,0.2,0.2,0.2,0.2c-0.1,0.2,0.2,0.2,0.2,0.2c0.1,0.2,0.2,0,0.2,0c0.2,0.1,0.3,0,0.3,0&#10;&#9;&#9;c0.1,0.1,0.2-0.1,0.2-0.1c0.2,0,0.2-0.2,0.2-0.1c0,0,0,0,0.1,0c0.1-0.1,0-0.2-0.1-0.5c-0.1-0.3,0.1-0.1,0.1-0.1&#10;&#9;&#9;c0.2,0.2,0.2,0.1,0.2,0.1c0.2,0.1,0.2,0,0.2,0c0.2,0.1,0.2,0.1,0.2,0.1c0.1,0.1,0.1,0,0.1,0c0,0,0,0,0.1,0.1c0.1,0.1,0.2,0,0.2,0&#10;&#9;&#9;c0.2,0.2,0.2,0,0.2,0c0,0,0.1,0.1,0.2,0.1c0.1,0,0-0.1,0.1-0.1c0,0,0.2,0.1,0.2,0.1c0.1,0,0-0.1,0-0.1s0,0,0.2,0.1&#10;&#9;&#9;c0.2,0.1,0.1,0,0.1,0c0,0-0.1-0.1,0-0.1c0,0,0.3,0.2,0.3,0.2c0,0,0.1,0.1,0.1,0c0-0.1-0.2-0.2-0.2-0.3c0,0-0.1-0.1-0.1-0.1&#10;&#9;&#9;c0,0,0.1,0.1,0.2,0.1c0.1,0.1,0.2,0.1,0.3,0.1c0.1,0,0.1,0,0.1-0.1c-0.1-0.1-0.2-0.2-0.2-0.2c0,0-0.2-0.2-0.2-0.2c0,0,0,0,0.1,0&#10;&#9;&#9;c0.1,0,0.2,0.1,0.3,0.1c0.1,0,0.1,0,0.2,0c0.1,0-0.1-0.1-0.1-0.1s0,0-0.3-0.2c-0.2-0.2-0.1-0.1-0.1-0.1c0.3,0,0.3,0,0.3,0&#10;&#9;&#9;c0,0-0.8-0.4-0.8-0.4s-0.1-0.1-0.8-0.2c-0.7-0.2-0.6-0.2-0.6-0.2s0-0.1,0-0.1c0,0,0-0.2,0.1-0.3c0-0.1,0-0.2,0-0.3c0,0,0-0.1,0-0.1&#10;&#9;&#9;c0,0,0-0.1,0-0.1c0,0-0.2,0.1-0.2,0.2c0,0-0.1,0.1-0.2,0.3c-0.1,0.2-0.2,0.2-0.3,0.2c0,0-0.6-0.4-0.7-0.4c0,0-0.1,0-0.1,0&#10;&#9;&#9;s-0.3-0.2-0.4-0.2c-0.1-0.1-0.2-0.1-0.3-0.1c-0.1,0,0.1,0.2,0.1,0.2c-0.1-0.1-0.5-0.1-0.5-0.1c-0.1,0,0.2,0.2,0.2,0.2&#10;&#9;&#9;c0,0-0.4,0-0.4,0c0,0.1,0.3,0.1,0.3,0.1s-0.2,0-0.4,0C242.7,346.9,243,347,243,347z M238.2,355.5&#10;&#9;&#9;C238.2,355.6,238.3,355.6,238.2,355.5c0.1,0.1,0.2,0.2,0.2,0.2c-0.1,0,0.1,0.1,0.1,0.1c0,0.1,0.1,0,0.1,0c0,0.1,0.1,0.1,0.1,0.1&#10;&#9;&#9;c0,0.1,0.1,0,0.1,0c0,0.1,0.1,0,0.1,0c0,0.1,0.1,0,0.1,0c0,0.1,0.1,0,0.1,0c0,0,0.1,0,0.1,0c0,0-0.3,0.1-0.4,0.2&#10;&#9;&#9;c-0.1,0.1,0,0.1,0,0.1c-0.1,0.1,0,0.1,0,0.1c-0.1,0.1,0,0.1,0,0.1c0,0.1,0.1,0.1,0.1,0.1c0,0.1,0.1,0.1,0.1,0.1&#10;&#9;&#9;c0,0.2,0.2,0.1,0.2,0.1c0.1,0.1,0.2,0,0.2,0c0.1,0.1,0.2,0,0.2,0c0.1,0,0.1-0.1,0.1-0.1c0.1,0,0.1-0.1,0.1-0.1c0,0,0,0,0.1,0&#10;&#9;&#9;c0.1-0.1,0-0.1-0.1-0.3c-0.1-0.2,0.1-0.1,0.1-0.1c0.2,0.1,0.2,0,0.2,0c0.2,0,0.1,0,0.1,0c0.1,0,0.2,0,0.2,0c0.1,0,0.1,0,0.1,0&#10;&#9;&#9;s0,0,0.1,0c0.1,0,0.1,0,0.1,0c0.1,0.1,0.1,0,0.1,0c0,0,0.1,0,0.1,0c0.1,0,0-0.1,0-0.1c0,0,0.1,0,0.1,0c0,0,0-0.1,0-0.1s0,0,0.1,0&#10;&#9;&#9;c0.1,0,0.1,0,0.1,0c0,0-0.1-0.1,0,0c0,0,0.2,0.1,0.2,0.1c0,0,0.1,0,0.1,0c0-0.1-0.2-0.1-0.2-0.1c0,0-0.1,0-0.1,0c0,0,0.1,0,0.2,0&#10;&#9;&#9;c0.1,0,0.2,0,0.2,0c0.1,0,0.1,0,0-0.1c-0.1,0-0.2-0.1-0.2-0.1c0,0-0.2-0.1-0.2-0.1c0,0,0,0,0,0c0.1,0,0.2,0,0.2,0c0,0,0.1,0,0.1,0&#10;&#9;&#9;c0,0-0.1-0.1-0.1-0.1s0,0-0.2-0.1c-0.2-0.1-0.1-0.1-0.1-0.1c0.2,0,0.2,0,0.2,0c0,0-0.6-0.1-0.6-0.1s-0.1,0-0.5,0&#10;&#9;&#9;c-0.5,0-0.4,0-0.4,0s0-0.1,0-0.1c0,0,0-0.1,0-0.2c0-0.1-0.1-0.1-0.1-0.2c0,0,0-0.1,0-0.1c0,0,0-0.1,0-0.1c0,0-0.1,0.1-0.1,0.1&#10;&#9;&#9;c0,0,0,0.1-0.1,0.3c0,0.2-0.1,0.2-0.1,0.2c0,0-0.5-0.2-0.5-0.2c0,0,0,0,0,0s-0.2,0-0.3,0c-0.1,0-0.2,0-0.2,0c0,0,0.1,0.1,0.1,0.1&#10;&#9;&#9;c-0.1,0-0.3,0-0.3,0.1c0,0,0.2,0.1,0.2,0.1c0,0-0.3,0.1-0.3,0.1c0,0,0.2,0,0.2,0s-0.2,0-0.2,0.1C238,355.5,238.2,355.5,238.2,355.5&#10;&#9;&#9;z M360.3,349.4c-0.1,0.1-0.1,0.4-0.1,0.5c0,0.1,0.2-0.2,0.2-0.2c0,0-0.1,0.4,0,0.4c0.1,0,0.1-0.2,0.1-0.2s0,0.2,0,0.3&#10;&#9;&#9;c0,0.1,0.1-0.2,0.1-0.2c0,0.1,0.2-0.1,0.2-0.1c0,0.1,0.1-0.1,0.1-0.1c0,0.1,0.2-0.1,0.2-0.1c0.1,0.1,0.1-0.1,0.1-0.1&#10;&#9;&#9;c0.1,0.1,0.1-0.1,0.1-0.1c0.1,0.1,0.1-0.1,0.1-0.1c0,0.1,0.1-0.1,0.1-0.1c0.1,0,0.1-0.1,0.1-0.1c0.1,0,0.1-0.1,0.1-0.1&#10;&#9;&#9;c0.1,0,0.1-0.2,0.1-0.2c0,0,0,0.4,0.1,0.6c0,0.2,0.2,0.1,0.2,0.1c0.1,0.2,0.2,0,0.2,0c0.1,0.2,0.2,0,0.2,0c0.1,0.1,0.2-0.1,0.2-0.1&#10;&#9;&#9;c0.1,0.1,0.2-0.2,0.2-0.2c0.2,0.1,0.2-0.2,0.2-0.2c0.1-0.1,0.1-0.2,0.1-0.2c0.1-0.2,0-0.3,0-0.3c0.1-0.1-0.1-0.2-0.1-0.2&#10;&#9;&#9;c0.1-0.2-0.1-0.2-0.1-0.2c0,0,0,0,0-0.1c0-0.1-0.2-0.1-0.5,0c-0.3,0.1-0.1-0.1-0.1-0.1c0.2-0.2,0.1-0.2,0.1-0.2&#10;&#9;&#9;c0.1-0.2,0.1-0.2,0.1-0.2c0.1-0.1,0.1-0.2,0.1-0.2c0.1-0.1,0-0.1,0-0.1c0,0,0,0,0.1-0.1c0.1-0.1,0-0.2,0-0.2c0.2-0.2,0-0.2,0-0.2&#10;&#9;&#9;c0,0,0.1,0,0.1-0.2c0-0.1-0.1,0-0.1-0.1c0,0,0.1-0.1,0.1-0.2c0,0-0.1,0-0.1,0s0,0,0.1-0.1c0.1-0.2,0-0.1,0-0.1c0,0-0.1,0-0.1,0&#10;&#9;&#9;c0,0,0.2-0.2,0.2-0.3c0,0,0.1-0.1,0-0.1c-0.1,0-0.2,0.2-0.3,0.2c0,0-0.1,0.1-0.1,0.1c0,0,0.1-0.1,0.1-0.2c0.1-0.1,0.1-0.2,0.2-0.3&#10;&#9;&#9;c0-0.1,0-0.1-0.1-0.1c-0.1,0-0.2,0.2-0.2,0.2c0,0-0.2,0.2-0.2,0.2c0,0,0,0,0-0.1c0-0.1,0.1-0.2,0.2-0.3c0-0.1,0-0.1,0-0.2&#10;&#9;&#9;c0-0.1-0.1,0.1-0.1,0.1s0,0-0.2,0.2c-0.2,0.2-0.1,0.1-0.1,0.1c0.1-0.3,0-0.3,0-0.3c0,0-0.4,0.7-0.4,0.7s-0.1,0.1-0.3,0.7&#10;&#9;&#9;c-0.2,0.6-0.3,0.5-0.3,0.5s-0.1,0-0.1,0c0,0-0.2-0.1-0.2-0.1c-0.1,0-0.2,0-0.2,0c0,0-0.1,0-0.1,0c0,0-0.1,0-0.1,0&#10;&#9;&#9;c0,0,0.1,0.2,0.1,0.2c0,0,0.1,0.1,0.3,0.2c0.2,0.2,0.2,0.2,0.1,0.3c0,0-0.5,0.5-0.5,0.5c0,0,0,0.1,0,0.1s-0.2,0.3-0.2,0.4&#10;&#9;&#9;c-0.1,0.1-0.1,0.2-0.1,0.3C360.1,349.5,360.3,349.4,360.3,349.4z M357.2,331.9c0,0,0,0,0.2,0.1c0.1,0.1,0.1,0.1,0.1,0.1&#10;&#9;&#9;c0,0-0.2,0.3-0.2,0.3c0,0,0,0,0,0s-0.1,0.2-0.1,0.2c0,0.1,0,0.1,0,0.2c0,0,0.1-0.1,0.1-0.1c0,0.1,0,0.2,0,0.3c0,0,0.1-0.1,0.1-0.1&#10;&#9;&#9;c0,0,0,0.2,0,0.2c0,0,0-0.1,0-0.1s0,0.1,0,0.2c0,0.1,0-0.1,0-0.1c0,0.1,0.1-0.1,0.1-0.1c0,0,0.1-0.1,0.1-0.1c0,0.1,0.1-0.1,0.1-0.1&#10;&#9;&#9;c0.1,0,0-0.1,0-0.1c0,0,0.1-0.1,0.1-0.1c0,0,0-0.1,0-0.1c0,0,0,0,0,0c0.1,0,0-0.1,0-0.1c0.1,0,0-0.1,0-0.1c0,0,0-0.1,0-0.1&#10;&#9;&#9;c0,0,0.1,0.2,0.1,0.3c0,0.1,0.1,0,0.1,0c0.1,0.1,0.1,0,0.1,0c0.1,0.1,0.1,0,0.1,0c0.1,0,0.1-0.1,0.1-0.1c0.1,0,0.1-0.1,0.1-0.1&#10;&#9;&#9;c0.1,0,0.1-0.1,0.1-0.1c0.1-0.1,0-0.1,0-0.1c0.1-0.1,0-0.1,0-0.1c0-0.1-0.1-0.1-0.1-0.1c0-0.1-0.1-0.1-0.1-0.1c0,0,0,0,0-0.1&#10;&#9;&#9;c0-0.1-0.1,0-0.2,0.1c-0.1,0.1-0.1-0.1-0.1-0.1c0.1-0.1,0-0.1,0-0.1c0-0.1,0-0.1,0-0.1c0-0.1,0-0.1,0-0.1c0-0.1,0-0.1,0-0.1&#10;&#9;&#9;s0,0,0,0c0-0.1,0-0.1,0-0.1c0.1-0.1,0-0.1,0-0.1c0,0,0,0,0-0.1c0-0.1-0.1,0-0.1,0c0,0,0-0.1,0-0.1c0,0,0,0,0,0s0,0,0-0.1&#10;&#9;&#9;c0-0.1,0-0.1,0-0.1c0,0,0,0,0,0c0,0,0.1-0.1,0.1-0.2c0,0,0,0,0-0.1c0,0-0.1,0.1-0.1,0.1c0,0,0,0.1,0,0c0,0,0,0,0.1-0.1&#10;&#9;&#9;c0-0.1,0-0.1,0-0.1c0,0,0-0.1,0,0c0,0-0.1,0.1-0.1,0.1c0,0-0.1,0.1-0.1,0.1c0,0,0,0,0,0c0,0,0-0.1,0-0.2c0,0,0-0.1,0-0.1&#10;&#9;&#9;c0,0-0.1,0.1-0.1,0.1s0,0-0.1,0.1c-0.1,0.1,0,0.1,0,0.1c0-0.2,0-0.1,0-0.1c0,0-0.1,0.4-0.1,0.4s0,0,0,0.4c0,0.3-0.1,0.3-0.1,0.3&#10;&#9;&#9;s0,0-0.1,0c0,0-0.1,0-0.1,0c0,0-0.1,0-0.1,0C357.2,331.8,357.2,331.8,357.2,331.9C357.2,331.8,357.1,331.8,357.2,331.9&#10;&#9;&#9;C357.1,331.9,357.2,331.9,357.2,331.9z M466.6,325.6c1.7-4.1-0.2-8.8-4.3-10.4c-0.7-0.3-1.3-0.5-2-0.5c2.8,2.2,3.9,6,2.5,9.4&#10;&#9;&#9;c-1.4,3.4-4.9,5.3-8.4,4.9c0.5,0.4,1.1,0.8,1.8,1C460.2,331.6,464.9,329.7,466.6,325.6z M562.3,447.3c0.1-0.1,0.2-0.3,0.3-0.4&#10;&#9;&#9;c0-0.4,0.4-0.9,0.3-1.2c-0.1,0.5-0.4,1.1-0.7,1.6h-1c0.1-0.1,0.1-0.1,0.2-0.2c-0.1,0-0.1,0.1-0.2,0.2c0,0,0-0.1-0.1-0.1&#10;&#9;&#9;c0,0-0.1,0.1-0.1,0.1h-0.6c0.1-0.1,0.2-0.3,0.1-0.4c-0.1,0.1-0.1,0.3-0.2,0.4H560c0,0,0.1-0.1,0.1-0.2c-0.1,0,0-0.1,0-0.2&#10;&#9;&#9;c0,0-0.2,0.3-0.2,0.1c-0.1,0,0,0.2-0.2,0.2c0.1-0.1-0.1-0.3,0.1-0.3c0.1,0.1,0.2-0.1,0.3,0c0.2-0.8,0.7,0.4,1.4,0&#10;&#9;&#9;c0-0.1,0-0.2,0.1-0.2c0.5-0.3,0.6-0.7,0.9-1.1c-0.3,0.1-0.5,0.8-0.8,1c0.1-0.1,0.2-0.2,0.2-0.4c-0.2,0.1-0.2,0.4-0.5,0.4&#10;&#9;&#9;c0-0.1,0.1-0.1,0.1-0.2c-0.2,0.3-0.8,0.4-1,0.1c0.1-0.1,0.2-0.2,0.3-0.3c-0.2-0.1-0.2,0.2-0.4,0.3c0-0.1,0.1-0.2,0-0.2&#10;&#9;&#9;c0,0.1,0,0.1-0.1,0.1c0-0.2-0.3-0.2-0.4-0.3c0.1-0.1,0.3,0,0.3,0c0.1,0.1-0.1,0.2,0,0.2c0.1-0.5,0.7-0.6,1.1-0.9&#10;&#9;&#9;c0.5-0.5,1-1.2,1-1.8c-0.3,0.9-0.9,1.8-1.8,2.2c0-0.1,0.2-0.3,0.1-0.4c-0.1,0.2-0.2,0.6-0.5,0.6c0.1-0.3,0.2-0.6,0.4-0.9&#10;&#9;&#9;c0.1,0,0.3-0.1,0.2-0.2c0,0.1-0.1,0.1-0.2,0c0-0.2,0.3-0.3,0.1-0.2c0-0.3,0.7-0.2,1-0.4c-0.1,0-0.2,0-0.2-0.1c0.1,0,0.1,0,0.2,0&#10;&#9;&#9;c0.3-0.7,1.2-1,1.2-1.8c-0.3,0.9-1.1,1.7-2.1,2c0.2-0.2,0.3-0.2,0.6-0.3c0-0.1-0.1-0.1-0.2-0.2c0.1-0.2,0.3-0.5,0.3-0.7&#10;&#9;&#9;c-0.3,0.2-0.3,0.8-0.6,1c0-0.1,0.1-0.2,0.1-0.3c-0.1,0-0.1,0.2-0.1,0.1c0-0.2,0.1-0.4,0-0.5c-0.1,0.3,0.1,1.1-0.4,1.1&#10;&#9;&#9;c0.2-0.2,0.2-0.6,0.2-0.9c-0.2,0.3-0.1,0.7-0.3,0.9c-0.2,0-0.3,0.2-0.4,0.1c0.1-0.2,0.3-0.4,0.4-0.6c-0.1,0-0.1,0.3-0.2,0.2&#10;&#9;&#9;c0.1-0.2,0.1-0.3,0.1-0.5c-0.3,0.3-0.1,1-0.6,1c0.1,0,0.1-0.1,0.1-0.1c-0.1,0-0.1-0.2-0.2-0.1c0,0.1,0.1,0,0.1,0.2&#10;&#9;&#9;c-0.2,0.2-0.4,0.2-0.6,0.1c0-0.1,0.1-0.2,0.1-0.3c-0.2,0-0.1,0.2-0.2,0.3c-0.3-0.1-0.6-0.1-0.9-0.2c0.2-0.1,0.4-0.4,0.6-0.5&#10;&#9;&#9;c0-0.3,0.3-0.5,0.3-0.8c-0.1,0-0.1,0.2-0.2,0.2c0.2-0.6,0.3-1,0.3-1.8c-0.3,0.2,0,0.9-0.3,1.2c0,0.6-0.4,0.9-0.6,1.3&#10;&#9;&#9;c0-0.1,0.1-0.1,0-0.2c-0.2,0.1,0,0.2-0.1,0.3c-0.1,0-0.1,0.1-0.1,0c0.1-0.3,0.4-0.6,0.6-0.9c0,0,0,0.1,0.1,0.1c0-0.2,0-0.4-0.1-0.8&#10;&#9;&#9;c-0.2,0.1,0,0.2,0,0.4c-0.1,0.2-0.1,0.4-0.3,0.5c0.1-0.1,0-0.3,0-0.5c-0.2,0.2,0.1,0.6-0.3,0.8c0-0.4-0.1-1.1,0.1-1.5&#10;&#9;&#9;c-0.3,0,0-0.5-0.3-0.6c0.2,0.3,0,0.4,0.1,0.7c-0.1,0-0.2,0.2-0.3,0.2c0,0,0.1,0,0.1-0.1c-0.1,0-0.1,0-0.1-0.1&#10;&#9;&#9;c-0.2,0.1,0,0.2-0.1,0.3c-0.2,0.2-0.5,0.6-0.8,0.6c0.3-0.7,0.7-1.2,0.9-1.9c-0.1,0.1-0.1,0.2-0.3,0.1c0.1,0.1,0,0.2-0.2,0.3&#10;&#9;&#9;c0-0.1,0-0.2-0.1-0.2c-0.1,0.1,0,0.2,0.1,0.3c-0.2,0.1-0.3,0.2-0.5,0.3c0-0.1,0-0.1-0.1-0.1c0.3-0.4,0.7-0.7,0.8-1.2&#10;&#9;&#9;c-0.3,0.1-0.1,0.4-0.3,0.5c0-0.1,0-0.2-0.1-0.2c0,0.1,0,0.1,0.1,0.3c-0.1,0.1-0.2,0.4-0.4,0.4c0.1-0.3,0.1-0.8-0.1-0.9&#10;&#9;&#9;c0,0.4,0.2,0.9-0.1,1.2c0.2,0,0,0.3-0.1,0.2c0-0.1,0.1-0.1,0.1-0.2c-0.2,0-0.1-0.4-0.2-0.4c0,0,0,0,0,0c0,0.2,0.1,0.4,0.1,0.6&#10;&#9;&#9;c0,0,0-0.1-0.1-0.1c0,0.2,0,0.6-0.2,0.8c0-0.5,0.1-0.9,0.2-1.3c0,0,0,0,0,0c0,0,0,0,0,0c0,0,0-0.1,0-0.1c-0.1-0.4,0.2-0.9-0.1-1.3&#10;&#9;&#9;c0.1,0.3,0,0.4,0.1,0.7c0,0-0.1,0.1-0.1,0.1c0.1,0.4,0,0.8-0.2,0.9c0.2,0.1,0.1,0.6-0.1,0.5c0-0.1,0-0.1,0-0.2&#10;&#9;&#9;c-0.2,0.1,0.1,0.3,0.1,0.5c-0.1,0.3-0.2,0.9-0.4,1.1c0.1-0.1,0-0.3,0.1-0.4c-0.1,0.1-0.1,0-0.1-0.1c-0.2,0-0.2,0.2-0.2,0.1&#10;&#9;&#9;c0-0.3,0.2-0.6,0.1-0.8c0,0.1,0,0.1-0.1,0.1c0-0.1,0.1-0.1,0-0.2c-0.1,0,0,0.1-0.1,0.2c0,0.1,0.1,0,0.1,0.1c-0.2,0.1,0,0.4-0.2,0.5&#10;&#9;&#9;c0-0.1,0-0.1-0.1-0.1c-0.1,0.1,0.1,0.1,0.1,0.3c0,0,0,0.1-0.1,0.1c-0.2-0.1-0.2-0.8-0.4-0.8c0.2,0.2,0.2,0.7,0.4,0.9&#10;&#9;&#9;c0,0.5-0.2,0.7-0.4,0.9c0,0.2-0.1,0.4-0.2,0.4c0.1-0.2-0.1,0-0.1-0.2c0-0.2,0.6-0.3,0.2-0.6c0,0.3-0.2,0.5-0.4,0.6&#10;&#9;&#9;c-0.1-0.1-0.2-0.1-0.3-0.3c0.1-0.3,0.3-0.6,0.6-0.7c0-0.1,0-0.3-0.2-0.4c0,0.1,0.1,0.2,0.1,0.3c0,0.1-0.2,0.3-0.3,0.3&#10;&#9;&#9;c0.1-0.2,0.2-0.6,0.3-0.8c-0.1,0,0-0.4-0.1-0.7c-0.2,0.3,0,0.6,0,0.9c0,0.3-0.3,0.8-0.4,1.1c-0.4-0.2-0.2-1-0.2-1.3&#10;&#9;&#9;c-0.1,0.1,0,0.3-0.2,0.4c0.1,0.1,0.1,0.3,0.1,0.5c-0.2-0.1-0.5-0.3-0.5-0.7c-0.3,0.4,0.5,0.6,0.6,1c-0.1,0.1,0,0.1,0,0.3&#10;&#9;&#9;c0.2,0-0.1-0.1,0-0.2c0.3,0.1,0.2,0.3,0.3,0.5c0.2,0,0-0.2,0.1-0.3c0.2,0.1,0.2,0.1,0.4,0.3c-0.1,0.1-0.3,0.4-0.4,0.4&#10;&#9;&#9;c0-0.2,0.1-0.3,0.1-0.5c-0.2,0-0.1,0.1-0.2,0.2c0-0.1,0-0.1-0.1-0.1c-0.2,0.1,0.1,0.2-0.1,0.4c0-0.1-0.1-0.1-0.1-0.1&#10;&#9;&#9;c0-0.1,0.1-0.3,0.1-0.4c0,0,0,0.1-0.1,0.1c0-0.1,0-0.1,0-0.2c-0.1,0-0.3,0.1-0.3,0c0-0.1,0.1-0.3-0.1-0.3c-0.1,0,0.1,0.2,0,0.2&#10;&#9;&#9;c-0.1-0.1-0.2-0.3-0.3-0.4v-0.2h-0.1c0,0,0,0,0,0c-0.1-0.3,0-1,0.1-1.4c-0.2-0.2,0-0.8,0-1c0,0,0,0.2-0.1,0.1&#10;&#9;&#9;c0-0.4,0.1-0.9-0.2-1.3c0.1,0.5,0.3,0.9,0.1,1.4c-0.1,0,0-0.2-0.1-0.1c0.2,0.4,0.2,1.1,0.1,1.6c-0.1-0.1-0.1-0.4-0.2-0.4&#10;&#9;&#9;c0,0.3,0.2,0.6,0.1,0.9c-0.1-0.3-0.3-0.6-0.3-0.8c-0.3,0.1,0.2,0.8,0.3,1c0,0,0,0,0,0.1H552c-0.2-0.3-0.5-0.7-0.7-0.9&#10;&#9;&#9;c0.1,0.3,0.4,0.5,0.6,0.9h-0.6c0,0,0.1-0.1,0.1-0.2c-0.1,0-0.1,0.1-0.2,0.2H551c0.1-0.4,0.4-1,0.1-1.4c0,0.4,0,1-0.3,1.4h-0.4&#10;&#9;&#9;c0.1-0.1,0.2-0.1,0.3-0.3c-0.1,0-0.1,0.1-0.2,0c0-0.1,0.1-0.2,0-0.2c-0.1,0.1,0,0.1,0,0.2c-0.1,0-0.1,0.1-0.2,0.2h-0.1&#10;&#9;&#9;c0.1-0.1,0.1-0.2,0.1-0.3c-0.2,0.1-0.1,0.2-0.2,0.3h-0.1v-2.5h-1.2c0-0.1,0-0.1,0-0.2c-0.1,0-0.1,0.1-0.2,0c0-0.2,0-0.5-0.2-0.5&#10;&#9;&#9;c0.1,0.2,0.1,0.5,0.1,0.7h-1.2l-0.2-0.2v-2.6h-2.9v-2.8h-2.9l-0.5-0.5v-0.7h-8.7c0-0.3,0.2-0.4,0.2-0.8c-0.6-1-0.9-2.4-1.6-3.1&#10;&#9;&#9;c0-0.9-0.2-2.1-0.2-3.3c0.1-0.2,0.4-0.2,0.4-0.5c-0.1-0.9-0.3-2.4,0.3-2.8c-0.1-0.2-0.1-0.5-0.1-0.8c0.1-0.1,0.2-0.2,0.3-0.3&#10;&#9;&#9;c-0.1-1.3-0.3-3.1-0.4-4.7c0.2-0.2,0.5-0.5,0.9-0.5c0.4-0.7,0.6-1.6,0.7-2.6c1-0.3,1.7-1.5,1.3-2.5c0.3-0.4,0.3-0.7,0.5-1&#10;&#9;&#9;c-0.7-0.3-1.3-0.7-2-1c0,0.3-0.3,0.1-0.5,0.3c-0.5,0.5-0.2,1.1-1,0.4c-0.8-0.6-0.7-3-2-3.2c-0.1-0.4-0.5-0.9-0.6-1.5&#10;&#9;&#9;c0.5-0.6-0.3-1.7,0.1-2.5c0.6-0.1,1.4,0,1.9-0.2c-0.6-0.1-1.6,0-2-0.5c0.6-0.2,1.2-0.4,1.7-0.7c-0.7-0.3-1.7,0.6-2.1,0&#10;&#9;&#9;c0.1-0.6,0.9-0.9,0.8-1.3c-0.7,0.3-1.1,1.3-2,0.9c0-0.6-0.1-1.2-0.4-1.7c-0.1,1,0.2,1.8-0.6,1.8c-0.5,0-1-1-1.7-1&#10;&#9;&#9;c0.3,0.6,0.9,0.8,1.1,1.4c-0.5,0.3-1.1,0-1.6,0.2c0-1.2-0.6-2.4-0.7-3.5c-0.1-1.1,0.1-2.2-0.5-3c0.2-0.1,0.2-0.4,0.2-0.5&#10;&#9;&#9;c1-0.1,0.6-0.9,0.7-1.5c-0.4-0.3-0.2-0.2-0.7-0.4c0.1-0.5,0.3-0.8,0.4-1.3c-0.1-0.2-0.4-0.2-0.4-0.4h-0.4c-0.6,0.3-1.2,0.8-1,1.6&#10;&#9;&#9;c-0.3,0.2-0.6,0.2-0.7,0.5c0.1,0.3,0.1,0.6-0.1,0.8c0.1,0.3,0.5,0.5,0.7,0.9c0.1,0.3-0.1,1,0.1,1.5c0.1,0.2,0.3,0.4,0.3,0.6&#10;&#9;&#9;c0,0.2-0.2,0.3-0.1,0.5c0,0.2,0.3,0.6,0.3,0.8c0.1,0.7,0,1.6,0.1,2.3c0.1,0.8,0.5,1.6,0.5,2c-0.1,0.7-1.9,3-0.1,3.5&#10;&#9;&#9;c-0.1,0.2-0.3,0.3-0.2,0.7c0.7,0.5,0.7,1.5,0.4,2.2c0.2,0.5,0.6,0.8,0.8,1.3c-0.5,1.1-1.9,3.4-0.1,4c-0.1,0.6-0.5,1.1-0.6,1.8&#10;&#9;&#9;c-0.1,1.1,0.7,2.8,0.5,4.3c0,0.4-0.3,0.6-0.3,1c0,0.2,0.1,0.4,0.2,0.6c0,0.4-0.2,0.9-0.2,1.3c-0.1,0.9,0.2,1.7,0.2,2.5&#10;&#9;&#9;c0,0.3-0.2,0.5-0.2,0.8c0,0.7,0.4,1.5-0.1,2.1c-0.4,0.1-0.3-0.3-0.7-0.2c-0.1,0.2-0.3,0.3-0.2,0.7c-0.4,0-0.7,0-0.9,0.1&#10;&#9;&#9;c-0.1,0.2-0.1,0.8-0.1,1.2c-0.2,0.2-0.3,0-0.6,0.2c0.4,0.7,0.3,1.4,0.1,2.1h-3.4v2.6h-5.2v-25.1h-1.6v-31.4h-0.5v-5.6h-45v-3.8&#10;&#9;&#9;h-6.1v3.8h-7v29.9c-2.7,1.8-7.1,3.4-13.6,3.4v-45.9h-1.3v-0.7h-0.9c-2.5-5.4-7.8-9.3-14-10l-1.5-13.5l-1.1,13.4&#10;&#9;&#9;c-6.7,0.3-12.3,4.4-14.9,10.2h-1v0.6h-1.9v75.1h-2.3v-62.2h-16.9l-4.2-4.2v-2.6h-10.3v6.8h-1.3v-2.9h-9.6v2.9h-4.8V395H347v-74.9&#10;&#9;&#9;h-35.5v-2.2h-8.4v2.2h-3.6v96.6h-1.2v-86.2h-8.7v-0.6h-2.8l-9.2-9V320h-0.1v-3.2h0.3v-0.9h-0.3v-9h-0.4v-2.2h-0.4v-11h-0.1v11h-0.5&#10;&#9;&#9;V320h-0.8v1.5l-8.4,8.4h-4.5v0.6h-8.1v60.5h-1.9v-1.7h-2.9v0h-1.5v-12.7h-0.7v0.3c-2.4-0.5-4.7,0.8-7.1,0.1v4.3&#10;&#9;&#9;c2.4,0.7,4.7-0.6,7.1-0.1v8h-18.5v9.8c-7.5,1.5-15,0.4-21.1-1.4c0,0,0-0.1,0-0.1c0.2,0,0.5-0.3,0.4-0.5c-0.1,0.2-0.2,0.4-0.4,0.4&#10;&#9;&#9;c0.2-0.5,0-1.1,0-1.5c-0.1,0-0.1,0.1-0.2,0.1c0.2,0.5,0.1,1.3-0.4,1.4c0-0.3-0.1-0.5-0.4-0.6c0,0.2,0.3,0.3,0.3,0.7&#10;&#9;&#9;c-0.2-0.1-0.4-0.1-0.6-0.2c0.1-0.3,0.1-0.6,0.3-0.8c-0.4,0.2-0.3-0.8-0.3-0.9c-0.2,0.1,0,0.7,0,0.9c0,0.1-0.2-0.1-0.2-0.2&#10;&#9;&#9;c-0.1,0.1,0.2,0.3-0.1,0.5c-0.1-0.1-0.1-0.3-0.1-0.5c-0.1,0.2,0,0.6,0.1,0.9c-0.1,0-0.2-0.1-0.2-0.1c0-0.2-0.1-0.4-0.1-0.6&#10;&#9;&#9;c0,0.1,0,0.3,0,0.5c-0.2-0.1-0.4-0.1-0.6-0.2c0-0.3,0.1-0.6,0.1-0.8c-0.1,0.2-0.1,0.5-0.2,0.8c0,0-0.1,0-0.1,0c0-0.3,0-0.7,0.1-0.9&#10;&#9;&#9;c-0.1,0.3-0.1,0.6-0.2,0.9c-0.3-0.1-0.5-0.2-0.8-0.3c0.1-0.1,0.1-0.3,0-0.4c0.5-0.5,0.7-1.2,1.2-1.6c0-0.2-0.2,0.2-0.2,0&#10;&#9;&#9;c0.1-0.2,0.1-0.5,0.2-0.8c-0.2,0.2-0.4,0.5-0.6,0.6c-0.1-0.6,0.9-0.7,0.8-1.4c-0.1,0.2-0.2,0.4-0.4,0.5c-0.1,0-0.1-0.5-0.2-0.3&#10;&#9;&#9;c-0.1-0.1,0.1-0.1,0.2-0.1c-0.1-0.2-0.3,0-0.3-0.4c-0.3,0.3,0,0.8-0.5,0.9c0.1-0.1,0-0.5,0.4-0.7c-0.2-0.3,0.1-0.5,0-0.8&#10;&#9;&#9;c-0.2,0.2-0.2,0.6-0.4,0.8c-0.1,0.1,0.2-0.6,0.1-0.7c-0.2,0.5-0.2,1.1-0.6,1.3c-0.2-0.3,0.1-0.6,0.3-0.7c0-0.2-0.1-0.2-0.1-0.3&#10;&#9;&#9;c0.2,0.2,0.4-0.3,0.4-0.8c0.2,0,0.2-0.2,0.4-0.2c0-0.1-0.2,0-0.2,0.1c-0.2-0.2,0-0.6,0-0.9c-0.2,0.5-0.1,1.2-0.4,1.5&#10;&#9;&#9;c-0.2-0.1,0.1-0.2,0-0.4c-0.2,0.1-0.1,0.5-0.4,0.6c0.1-0.3,0.2-0.8,0.4-0.6c0-0.1-0.2-0.1-0.2,0c-0.1-0.4,0.1-1,0.2-1.4&#10;&#9;&#9;c-0.3,0.1-0.1,0.8-0.3,1.1c-0.1,0-0.1-0.1-0.2-0.1c0.2,0.2,0.1,0.6,0.1,0.9c-0.1-0.1-0.1-0.3-0.1-0.5c-0.2-0.1-0.2,0.2-0.2,0.2&#10;&#9;&#9;c0-0.4,0.1-0.9,0.1-1.5c-0.2,0.1-0.1,0.4-0.2,0.6c-0.2-0.1-0.3-0.5-0.2-0.8c-0.2,0-0.3,0.2-0.6,0.3c0-0.3,0-0.5,0.2-0.6&#10;&#9;&#9;c0-0.1-0.2,0.1-0.1-0.2c-0.1,0.1-0.1,0.4-0.2,0.5c-0.1,0-0.2-0.3-0.1-0.4c-0.2,0,0,0.2-0.2,0.2c0-0.4,0-0.8,0.1-1.1&#10;&#9;&#9;c0-0.1-0.1-0.1-0.1,0c-0.2-0.2,0.2-0.4,0.1-0.6c-0.3,0.3-0.2,0.7-0.5,1.1c-0.1,0,0-0.1-0.1-0.2c0,0.3-0.1,0.7-0.3,0.9&#10;&#9;&#9;c-0.2-0.1,0.1-0.2,0-0.4c-0.1,0.1-0.1,0.2-0.2,0.3c-0.2-0.1,0.1-0.1,0.1-0.3c-0.1,0-0.1,0-0.1,0.1c-0.2-0.9,0.6-1.3,1.1-1.9&#10;&#9;&#9;c-0.2,0-0.2,0.1-0.3,0.3c-0.2-0.2,0.2-0.3,0.1-0.5c-0.1,0.1-0.2,0.3-0.2,0.5c-0.1-0.1-0.1-0.2-0.1-0.4c0,0.4-0.1,0.8-0.4,1.1&#10;&#9;&#9;c-0.2-0.7,0.1-1.6,0-2.6c-0.2,0.8-0.1,1.9-0.2,2.6c-0.1-0.1-0.1-0.4-0.2-0.6c-0.1,0,0,0.2-0.1,0.4c-0.2-0.3-0.4-0.6-0.5-1&#10;&#9;&#9;c-0.2,0.7,0.8,1.1,0.6,2.1c-0.2,0-0.1-0.4-0.1-0.6c-0.2,0.1-0.2,0.5-0.4,0.6c-0.2-0.2,0.1-0.3,0.1-0.5c-0.2,0-0.1,0.1-0.2,0.2&#10;&#9;&#9;c-0.2-0.4-0.3-0.9-0.1-1.4c-0.1,0-0.1,0.1-0.1,0.2c-0.1-0.1,0-0.5-0.1-0.7c-0.4,0.3-0.2,0.5-0.4,0.9c0.2-0.3-0.4,0.2-0.2,0.5&#10;&#9;&#9;c-0.1-0.1-0.3-0.5-0.1-0.5c-0.6-0.3,0.3-0.7,0.2-1.4c-0.1,0.2-0.2,0.6-0.4,0.8c-0.1-0.1,0-0.7-0.1-0.8c-0.1,0,0,0.1-0.1,0.2&#10;&#9;&#9;c-0.1-0.1-0.1-0.3-0.2-0.4v-4.7c0-1.4-0.5-2.3-1.2-3v-9.3h-4.6v-2.8H171v2.8h-5.8v30.2h-2.1v-25.5h-3.3V374c0-0.6,0.6-0.6,0.6-0.6&#10;&#9;&#9;h1.9v-2.2h-2.5c-1.2,0-1.7,0.5-2,1h-0.6c-1.4,0-1.5,1.1-1.5,1.1v1.7h-20.5V368h-0.6v6.8H133v30.3h-4.9v-3.8h-5v3.8h-0.8v-3.8h-5&#10;&#9;&#9;v3.8h-3.3v3.6H109l-14.4,6.9v0.8h2.2v14.9l-1.5,1.6l-1.2-0.5v-0.9c-0.1,0.3,0,0.7-0.1,0.7c0,0.1,0,0.1,0.1,0.2l-0.2-0.1l-0.4,1&#10;&#9;&#9;c-0.1-0.2-0.2-0.4-0.2-0.7c0.2-0.2,0.3-0.7,0.4-0.9c-0.3,0-0.2,0.6-0.4,0.8c-0.1,0-0.1-0.1-0.1-0.1c0-0.1,0.2-0.1,0.1-0.3&#10;&#9;&#9;c-0.1,0-0.1,0-0.1,0.1c-0.2-0.1,0-0.4-0.2-0.5c0-0.1,0.1,0,0.1-0.1c0-0.1,0-0.2-0.1-0.2c-0.1,0.1,0,0.1,0,0.2c-0.1,0-0.1,0-0.1-0.1&#10;&#9;&#9;c-0.1,0.2,0.1,0.5,0.1,0.8c-0.1,0.1-0.1-0.2-0.2-0.1c0,0.1,0,0.2-0.1,0.1c0,0.1,0,0.3,0.1,0.4c-0.2-0.2-0.3-0.7-0.4-1.1&#10;&#9;&#9;c0-0.1,0.3-0.4,0.1-0.5c0,0.1,0,0.2,0,0.2c-0.2,0.1-0.3-0.4-0.1-0.5c-0.2-0.1-0.3-0.5-0.2-0.9c-0.1,0-0.1,0-0.1-0.1&#10;&#9;&#9;c0.1-0.3,0-0.4,0.1-0.7c-0.3,0.4,0,0.8-0.1,1.3c0,0,0,0.1,0,0.1c0,0,0,0,0,0c0,0,0,0,0,0c0.2,0.4,0.2,0.8,0.2,1.3&#10;&#9;&#9;c-0.2-0.2-0.2-0.6-0.2-0.8c0,0,0,0.1-0.1,0.1c0-0.2,0.1-0.3,0.1-0.6c0,0,0,0,0,0c-0.2,0,0,0.4-0.2,0.4c0,0.1,0.1,0.1,0.1,0.2&#10;&#9;&#9;c-0.1,0.1-0.3-0.2-0.1-0.2c-0.2-0.3-0.1-0.8-0.1-1.2c-0.2,0.2-0.2,0.6-0.1,0.9c-0.2,0-0.2-0.3-0.4-0.4c0-0.2,0.1-0.2,0.1-0.3&#10;&#9;&#9;c-0.1,0-0.1,0.1-0.1,0.2c-0.2-0.1-0.1-0.4-0.3-0.5c0.1,0.5,0.5,0.9,0.8,1.2c0,0-0.1,0.1-0.1,0.1c-0.2-0.1-0.3-0.2-0.5-0.3&#10;&#9;&#9;c0-0.1,0.1-0.2,0.1-0.3c-0.1,0.1-0.1,0.1-0.1,0.2c-0.1-0.1-0.3-0.2-0.2-0.3c-0.2,0.1-0.1,0-0.3-0.1c0.2,0.7,0.6,1.2,0.9,1.9&#10;&#9;&#9;c-0.3,0.1-0.5-0.4-0.8-0.6c-0.1-0.1,0.1-0.2-0.1-0.3c0,0.1,0,0.1-0.1,0.1c0,0.1,0,0.1,0.1,0.1c-0.1,0.1-0.2-0.1-0.3-0.2&#10;&#9;&#9;c0.2-0.4-0.1-0.4,0.1-0.7c-0.3,0.1,0,0.7-0.3,0.6c0.1,0.3,0.1,1,0.1,1.5c-0.3-0.2,0-0.6-0.3-0.8c0,0.2,0,0.4,0,0.5&#10;&#9;&#9;c-0.2-0.1-0.2-0.4-0.3-0.5c0-0.2,0.2-0.4,0-0.4c-0.1,0.3-0.1,0.6-0.1,0.8c0,0,0-0.1,0.1-0.1c0.2,0.3,0.5,0.5,0.6,0.9&#10;&#9;&#9;c0,0.1-0.1-0.1-0.1,0c-0.1-0.1,0.1-0.2-0.1-0.3c0,0.1,0.1,0.1,0,0.2c-0.3-0.4-0.6-0.8-0.6-1.3c-0.4-0.3,0-1-0.3-1.2&#10;&#9;&#9;c0,0.8,0.1,1.2,0.3,1.8c-0.1,0.1,0-0.2-0.2-0.2c0,0.3,0.4,0.4,0.3,0.8c0.2,0.2,0.4,0.4,0.6,0.5c-0.3,0.1-0.5,0.1-0.9,0.2&#10;&#9;&#9;c-0.1-0.1,0-0.2-0.2-0.3c0,0.1,0.1,0.2,0.1,0.3c-0.2,0.1-0.4,0-0.6-0.1c0-0.1,0.1,0,0.1-0.2c-0.1-0.1-0.1,0.1-0.2,0.1&#10;&#9;&#9;c0,0.1,0,0.1,0.1,0.1c-0.1,0-0.1,0-0.1,0l0.1-0.6l-0.4,0c0-0.1-0.1-0.3-0.1-0.3c0,0.1,0.1,0.2,0.1,0.3l-0.1,0c0,0,0,0-0.1,0&#10;&#9;&#9;c0,0,0,0,0,0l-0.3,0c0-0.2,0-0.3-0.1-0.5c0,0.2,0,0.3,0,0.5l-0.2,0c0-0.2,0-0.5,0-0.7c-0.2,0-0.1,0.3,0,0.5c-0.1,0.1,0-0.1-0.1-0.1&#10;&#9;&#9;c0,0.1,0.1,0.2,0.1,0.3l0,0c-0.3-0.2-0.3-0.7-0.6-0.9c0.1,0.3,0.2,0.5,0.3,0.7c-0.1,0-0.1,0.1-0.2,0.2c0.1,0,0.2,0,0.2,0l-0.2,0&#10;&#9;&#9;c-0.7-0.4-1.3-1.1-1.6-1.8c0,0.9,0.9,1.2,1.2,1.8l-0.5,0c-0.1-0.2-0.2-0.4-0.3-0.7c0,0.2,0.1,0.4,0.2,0.7l-7.9,0.5l-1,7h-3.4V432&#10;&#9;&#9;l3,0.4c0.1-0.9-0.6-1.7-1.7-1.8c-0.5-0.1-1,0-1.4,0.2v-1.1h-0.4v1.5c-0.2,0.2-0.3,0.4-0.3,0.7l0.3,0v8.5h-1.6V438h-2.9v2.5h-2v0.5&#10;&#9;&#9;l-0.9,0.9v-5.5h-1.3v1.8h-4.4v3.8H41.6l-0.1-0.1v-5l23.8-6.8l-0.3-0.9l-23.8,6.8H40v0.4l-0.3,0.1l0.3,0.9l0,0v3.2h-1.1v-10.8h0.8&#10;&#9;&#9;l-3.2-2.3h-5l-3.7,2.3h0.8v6.8h-0.5c0-0.1,0.1-0.2,0.1-0.3c-0.1,0.1-0.1,0.2-0.2,0.3h-0.2c0-0.2,0-0.3,0-0.4c-0.1,0,0,0.1,0,0.2&#10;&#9;&#9;c-0.2-0.1-0.1-0.4-0.2-0.6c-0.1,0.1,0.1,0.4,0,0.6c0.1-0.1,0.1,0.1,0.1,0.2H27v1c-0.1-0.1,0-0.2-0.2,0c0-0.4-0.1-0.8,0.2-1&#10;&#9;&#9;c0,0-0.1-0.1-0.1-0.1c-0.1,0,0,0.2-0.1,0.2c0,0-0.1-0.1-0.1,0c-0.1-0.1-0.2-0.2-0.3-0.4c-0.1,0.3,0.4,0.3,0.3,0.7&#10;&#9;&#9;c-0.1-0.1-0.1-0.2-0.2-0.3c-0.1,0.2,0.5,0.7,0,1v-0.2c-0.2,0.1-0.1,0.5-0.1,0.6c-0.1-0.1-0.1-0.2-0.3-0.2c0-0.1,0-0.3,0-0.3&#10;&#9;&#9;c-0.1,0,0,0.2,0,0.3c-0.2-0.3,0.2-1,0.1-1.3c-0.1,0.1-0.1,0.2-0.1,0.4c-0.1-0.2,0-0.5,0-0.8c-0.1,0-0.1,0.3-0.1,0.4&#10;&#9;&#9;c-0.1,0-0.1-0.2-0.2-0.2c-0.1,0.1,0.1,0.2,0.2,0.3c0,0.3,0,0.7-0.1,0.6c0.1,0.3,0.1,0.7,0.1,1.1c-0.2,0-0.1,0-0.1,0.2&#10;&#9;&#9;c-0.2,0-0.1-0.4-0.2-0.4c0,0.3,0.1,0.9,0,1c-0.2-0.1-0.1-0.5,0-0.7c-0.2,0-0.1,0.3-0.2,0.4c-0.2-0.2,0.1-0.3,0.1-0.5&#10;&#9;&#9;c0-0.1-0.1,0-0.1,0.1c-0.1-0.1,0-0.2-0.1-0.3c0,0.2-0.1,0.5-0.3,0.7c-0.1,0,0.1-0.2,0-0.3h0.2c-0.2-0.1,0-0.3,0-0.6&#10;&#9;&#9;c0.1-0.1,0.3-0.1,0.3-0.3c-0.1,0.1-0.2,0.1-0.2,0.2c0-0.3,0.2-0.6,0.4-0.9c0-0.1-0.1,0-0.1,0c0,0.1-0.2,0.2-0.2,0.3&#10;&#9;&#9;c-0.1-0.1,0-0.4,0-0.6c-0.1,0.2-0.1,0.4-0.1,0.6c-0.2-0.2-0.3-0.4-0.5-0.6c-0.1,0.1,0,0.1-0.1,0.3c0-0.1-0.1-0.6,0.1-0.4&#10;&#9;&#9;c-0.2-0.3,0.1-0.4,0.2-0.6c-0.1-0.1-0.1,0-0.2,0v-0.5c-0.1,0.1-0.1,0.4-0.1,0.6c-0.1-0.2-0.3-0.3-0.3-0.6c-0.2,0.2,0.3,0.5,0,0.6&#10;&#9;&#9;c0,0.1,0.1-0.1,0.2,0c0,0.2,0,0.1,0,0.4c-0.1-0.1-0.1,0.1-0.2,0.2c0,0,0,0.1,0,0.1c0,0-0.1,0-0.1,0V436c-0.2,0.1,0,0.6-0.1,0.7&#10;&#9;&#9;c-0.1,0-0.3,0.2-0.4,0.4c-0.1,0-0.1-0.1-0.1-0.2c-0.1,0.2-0.2,0.4-0.3,0.6c-0.1-0.1,0.1-0.3,0.1-0.5c-0.1,0.1-0.1,0.3-0.3,0.3&#10;&#9;&#9;c0.1-0.1,0-0.3,0.2-0.3c-0.2-0.1,0-0.2-0.1-0.4c-0.2,0.2-0.1,0.5-0.3,0.8c0.1-0.8,0.4-2,0.8-2.7c-0.2,0-0.1,0.3-0.3,0.4&#10;&#9;&#9;c0-0.1,0.1-0.1,0-0.2c-0.1,0-0.1,0.1-0.2,0.1c0.1,0.1,0.1,0,0,0.2c-0.3-0.1,0-0.5-0.1-0.7c-0.1,0.1-0.1,0.3-0.1,0.4&#10;&#9;&#9;c-0.1,0-0.1-0.1-0.1-0.1c0.1,0.2,0.1,0.2,0.1,0.5c-0.1,0-0.1,0.2-0.2,0c0.1,0.2-0.1,0.5-0.3,0.5c0,0.1,0,0.1,0.1,0.2&#10;&#9;&#9;c-0.1,0.1-0.2-0.2-0.2-0.3c-0.2,0.1,0,0.3,0,0.4c-0.2,0.1-0.4,0.5-0.6,0.4c-0.1,0.1,0,0.2-0.1,0.3c0-0.3,0.1-0.7,0.4-0.8&#10;&#9;&#9;c0.1-0.1,0.2-0.3,0.2-0.6c-0.2,0.2-0.3,0.5-0.5,0.8c-0.1-0.5,0.1-0.9,0-1.4c0.1-0.1,0.1,0,0.1,0c-0.1-0.4,0.3-0.4,0.3-0.8&#10;&#9;&#9;c-0.1,0.2-0.4,0.3-0.4,0.6c-0.1-0.2,0-0.6,0-0.8c0,0-0.1,0.1-0.1,0c0,0.2,0,0.5,0,0.7c-0.1,0,0-0.1-0.1-0.1c-0.1,0.1,0.1,0.2,0,0.4&#10;&#9;&#9;c-0.2,0-0.1,0.2-0.3,0.4c0.1-0.3-0.1,0,0-0.3c-0.2,0.1-0.1,0.2,0,0.6c-0.2-0.1,0-0.4-0.2-0.4c0.1-0.3,0-0.4,0.1-0.6&#10;&#9;&#9;c0,0,0,0.1,0,0.1c0.1,0,0-0.2,0-0.2c0.1-0.1,0.2-0.4,0.3-0.7c-0.2,0-0.1,0.3-0.2,0.2c-0.1,0.7-0.3,0.1,0,0c-0.1-0.1,0-0.3,0-0.4&#10;&#9;&#9;c-0.2,0.1-0.1,0.5-0.1,0.8c0,0,0,0-0.1,0c0,0,0,0,0,0c0-0.1,0,0,0.1,0c-0.2-0.2-0.2-0.4-0.3-0.6c-0.2,0.2,0.3,0.6,0,0.7&#10;&#9;&#9;c0.1,0,0.2,0.2,0.3,0.3c-0.3,0,0.1,0.4-0.1,0.6c-0.1-0.3-0.4-0.4-0.2-0.8c0-0.1-0.1-0.1-0.1-0.2c-0.1,0,0.1,0.3-0.1,0.1&#10;&#9;&#9;c0,0.2,0,0.3-0.1,0.4c-0.1,0,0.1-0.1,0-0.2c-0.1,0-0.1,0.2-0.1,0.2c0-0.2-0.1-0.2-0.1-0.4c0,0,0,0.1,0,0.1c-0.1,0,0-0.3,0.1-0.1&#10;&#9;&#9;c-0.2-0.2,0.1-0.8,0-1c0-0.1,0.1,0,0.2,0c-0.1-0.2-0.2,0.1-0.3,0.1c0.1,0.1,0.1,0.1,0,0.3c-0.1-0.1-0.1-0.3-0.1-0.6&#10;&#9;&#9;c-0.1-0.1-0.2-0.1-0.2,0c0,0.1,0.2,0,0.1,0.2c-0.1-0.2-0.1,0.1,0,0.1c0,0.1-0.1,0-0.1,0c0.1,0.3,0,0.6,0.1,0.9&#10;&#9;&#9;c-0.1,0-0.1,0-0.1-0.1c-0.2,0.2-0.2,0.4-0.2,0.7c-0.1-0.4-0.2-0.5-0.1-0.8c0,0-0.1,0-0.1-0.1c-0.2,0.1,0.1,0.6-0.1,0.4&#10;&#9;&#9;c0.1,0.1,0.2,0.3,0.2,0.6c-0.1-0.1,0-0.3-0.1-0.4c0,0.3-0.1,0.6-0.2,0.8c-0.1,0,0-0.1,0-0.1c-0.2,0-0.1-0.4-0.3-0.5&#10;&#9;&#9;c-0.1,0.1,0.1,0.4,0.2,0.7c-0.3-0.3-0.3-0.2-0.5-0.6c0,0.3,0.4,0.6,0,1c-0.1-0.1,0-0.4,0-0.6c-0.2,0-0.1,0.2-0.2,0.3&#10;&#9;&#9;c0,0-0.1-0.1-0.1,0c-0.1,0,0-0.2-0.1-0.3c0,0.4,0.1,0.6,0.2,1.1c0-0.1-0.3-0.1-0.2-0.2c-0.1,0-0.1,0-0.1,0.1&#10;&#9;&#9;c0.1,0.1,0.2,0.2,0.4,0.2c0,0,0,0,0,0.1c0.2,0,0.2,0.8,0.6,0.8c-0.4,0-0.6-0.4-0.8-0.6c-0.1,0.4,0.5,0.7,0.3,1&#10;&#9;&#9;c0.2,0.1,0.3,0.4,0.3,0.6c-0.1,0.1-0.3-0.3-0.2-0.4c-0.2-0.1-0.5-0.6-0.3-0.8c0-0.1-0.1-0.1-0.1-0.2c-0.1,0.2-0.2,0.4-0.1,0.5&#10;&#9;&#9;c-0.2,0.1-0.1-0.3-0.1-0.4c-0.2,0.2,0.1,0.6-0.1,0.8c0.3,0,0.4,0.3,0.5,0.6c0.1,0,0.1-0.1,0.2,0c0.2,0.2,0.2,0.3,0.3,0.5&#10;&#9;&#9;c-0.3-0.1-0.7-0.3-0.8-0.7c0,0.5,0.4,1,0.4,1.3c0,0.2,0.2,0.7-0.1,0.8c0.2-0.2-0.2,0-0.3-0.2c0-0.1,0.1-0.1,0-0.2&#10;&#9;&#9;c-0.1,0-0.1,0.1-0.1,0.2c-0.1,0-0.1-0.1-0.2-0.1c0-0.3,0.3-0.4,0.4-0.7c0,0-0.1,0-0.1-0.1c-0.1,0,0,0.1,0,0.1&#10;&#9;&#9;c-0.2,0-0.1,0.4-0.3,0.3c0,0.1,0,0.2-0.1,0.3c-0.1-0.1-0.1-0.8,0-0.8c0-0.1-0.1,0-0.1-0.2c-0.1,0.1,0,0.2-0.2,0.1&#10;&#9;&#9;c0.1,0.2,0.2,0.5,0.1,0.8c-0.1-0.3-0.3-0.4-0.2-0.7c-0.2-0.2-0.3-0.3-0.2-0.4c-0.2,0-0.2,0.1-0.1,0.2c-0.2-0.3-0.3-0.7-0.3-1.2&#10;&#9;&#9;c-0.3,0.5,0.2,1,0.3,1.5c-0.1-0.1,0-0.2-0.1-0.4c-0.2,0.1,0,0.2,0,0.4c-0.1,0-0.2,0-0.2-0.1c-0.2,0-0.1,0.3-0.3,0.3&#10;&#9;&#9;c0-0.4,0.1-0.8,0-1.2c-0.1,0,0,0.3,0,0.4c-0.1,0,0-0.1-0.1-0.1c-0.2,0.2,0.4,0.3,0,0.3c0,0.1,0.1,0,0.1,0c0,0.2-0.1,0.2-0.1,0.4&#10;&#9;&#9;c0,0,0-0.1-0.1-0.1c0-0.2,0.1-0.4,0-0.4c-0.2,0-0.1,0.1-0.1,0.2c-0.2-0.3-0.1-0.5-0.1-0.8c-0.2,0-0.1,0.1-0.1,0.2&#10;&#9;&#9;c-0.1,0-0.1-0.1-0.1-0.1c-0.1,0.1,0,0.5,0.1,0.6c0,0.1-0.1,0.1-0.1,0.2c-0.3-0.4-0.1-1-0.1-1.4c-0.2,0-0.2,0.3-0.1,0.4&#10;&#9;&#9;c-0.1,0-0.1-0.2-0.1-0.3c0,0-0.1,0-0.1,0c0.2,0.4,0.1,1,0.1,1.5c-0.2,0-0.3-0.3-0.3-0.4c0-0.1-0.1,0-0.2,0c0,0.2,0.1,0.2,0.1,0.3&#10;&#9;&#9;c0,0.1-0.1,0.1-0.1,0.1c0.2,0.3,0.4,0.9,0.1,1.2c-0.1-0.1-0.1-0.2-0.2-0.3c-0.1,0,0.2,0.2,0,0.3c0,0.1,0.2-0.1,0.1,0.1&#10;&#9;&#9;c-0.2-0.1-0.1,0.1-0.2,0.3c-0.2-0.2-0.1-0.4-0.4-0.5c-0.1-0.4,0.2-0.7,0.3-1c-0.1,0-0.2,0.1-0.1-0.1c-0.1,0.1-0.2,0.4-0.2,0.6&#10;&#9;&#9;c-0.2,0-0.1-0.4,0-0.4c-0.3,0-0.1-0.5-0.2-0.7c-0.3,0.1,0-0.3,0.1-0.5c-0.1-0.1-0.2,0.2-0.3,0.3c-0.2-0.1-0.1-0.5-0.2-0.7&#10;&#9;&#9;c-0.1,0.4,0,0.6,0.1,1c0,0.1-0.1,0-0.1,0c-0.1,0.1,0,0.3,0.1,0.4c0,0.1-0.1-0.1-0.2,0c0,0.1,0.2,0.1,0,0.1c0.1,0.1,0.2,0,0.3,0&#10;&#9;&#9;c-0.1,0.1,0,0.2,0,0.4c0,0,0,0.1-0.1,0.1c0.1,0,0.1,0.1,0.1,0.2c0-0.1-0.2,0-0.2,0c-0.3-0.2-0.6-0.5-0.7-1&#10;&#9;&#9;c-0.2,0.4,0.5,0.8,0.7,1.2c-0.3-0.2,0.2,0.5,0,0.8c-0.3,0-0.4-0.2-0.6-0.3c0-0.1,0.1-0.1,0-0.2c-0.2,0.2,0-0.7-0.3-0.3&#10;&#9;&#9;c0.1,0.1,0,0.1,0.1,0.2c-0.2-0.1-0.2-0.5-0.3-0.7c-0.1,0.1,0,0.1-0.1,0.2c0,0.1,0.1,0,0.1,0c0,0.2-0.1,0-0.2,0.1&#10;&#9;&#9;c0.3,0,0.2,0.4,0.4,0.5c-0.1,0.1,0.1,0.4-0.1,0.3c0,0.1,0.1,0.2,0.2,0.2c0,0.1,0,0.1-0.1,0.1c0.1,0.1,0.1,0,0.2,0.1&#10;&#9;&#9;c0,0.1-0.1,0-0.2,0c0.1,0.1,0.2,0.1,0.1,0.2c0.1-0.1,0.3,0,0.3,0.1c-0.2,0-0.2-0.1-0.4,0c-0.1-0.1,0-0.1,0-0.1&#10;&#9;&#9;c-0.1,0.1-0.2-0.1-0.3-0.3c-0.2,0.3,0.4,0.5,0.4,0.6c0.2-0.1,0.2-0.1,0.4-0.1c-0.1,0.1,0.1,0.2,0.3,0.2c0.1,0.3,0.2,0.5,0.5,0.6&#10;&#9;&#9;c-0.1,0.1-0.1,0.2,0,0.2c-0.5,0.2-0.7-0.1-0.6-0.6c-0.1,0-0.1,0.3-0.1,0.4c-0.2-0.1-0.4-0.4-0.4-0.6c0,0.2-0.1,0.5,0,0.6&#10;&#9;&#9;c-0.1,0-0.2-0.4-0.4-0.5c-0.1,0.1,0.3,0.3,0,0.4c0.2,0,0.4,0.5,0.4,0.6c0,0.1,0.2-0.1,0.2,0.1c-0.3-0.1-0.6-0.3-0.7-0.6&#10;&#9;&#9;c-0.1,0.3,0.3,0.4,0.4,0.7c-0.1,0-0.1-0.1-0.1-0.1c0,0.3,0.4,0.3,0.4,0.6c-0.1-0.1-0.1,0-0.2-0.1c0-0.1,0-0.1,0.1,0&#10;&#9;&#9;c0-0.1-0.2,0-0.1-0.2c-0.1,0.2-0.1,0.1-0.2,0.1c0,0.1,0.2,0.1,0.1,0.3c-0.1,0-0.1-0.3-0.1,0c-0.1-0.1-0.2-0.2-0.1-0.3&#10;&#9;&#9;c-0.1,0.1-0.3-0.1-0.3-0.2c0.1-0.1,0.1-0.1,0.2-0.3c-0.1-0.1-0.1,0.1-0.2,0.1c-0.2-0.1-0.1-0.4-0.2-0.5c-0.1,0.3,0.1,0.8,0.3,1.1&#10;&#9;&#9;c0,0.1-0.1,0.1-0.1,0.1c0.2,0,0.2,0.3,0.4,0.4c0,0-0.2,0.1-0.2,0c-0.1,0.1,0.1,0.2,0.1,0.3c-0.1,0.1-0.3-0.2-0.3-0.4&#10;&#9;&#9;c-0.1-0.1,0,0.1-0.2,0.1c0.1,0.1,0.3,0.1,0.2,0.4c0.1-0.2,0.2,0.1,0.4,0.1c-0.5,0.1-0.7-0.6-1.1-0.8c0.1,0.4,0,0.3,0.1,0.5&#10;&#9;&#9;c0.1-0.1,0-0.1,0.2,0c-0.1,0.4,0.4,0.4,0.6,0.8c0,0,0,0,0,0c-0.1,0.1,0,0.4,0,0.6c-0.2-0.2-0.7-0.4-0.6-0.9c-0.1,0-0.1,0.3-0.1,0.4&#10;&#9;&#9;c-0.2-0.1-0.3-0.6-0.2-0.8c0,0-0.1-0.1-0.1-0.1c0,0.1,0,0.2-0.1,0.3c0.2-0.2,0.2,0.8,0.4,0.8v0.2c-0.4,0.1-0.4-0.2-0.6-0.3&#10;&#9;&#9;c0,0.2,0.2,0.5,0.5,0.4v0.1c0,0,0.1,0,0.1-0.1c0,0,0,0,0,0.1c0,0.1,0.1,0.2,0.3,0.3H0V485h649v-37.7H562.3z M204.7,393.6&#10;&#9;&#9;c0.2,0,0.3,0,0.2-0.4c0.2,0,0.1,0.2,0.1,0.4c-0.1,0-0.1,0.1-0.1,0.2c-0.2,0,0-0.1-0.1-0.2C204.7,393.9,204.6,394.1,204.7,393.6z&#10;&#9;&#9; M23.3,435.2c0.1,0.1,0,0.4,0,0.5C23.2,435.7,23.2,435.3,23.3,435.2z M18.5,437.9c-0.2,0.1-0.2-0.2-0.2-0.1c-0.1,0-0.1-0.2,0-0.2&#10;&#9;&#9;c-0.1,0-0.1-0.1-0.1-0.3c0.1,0.1,0.2,0.6,0.3,0.5C18.5,437.7,18.5,437.8,18.5,437.9L18.5,437.9z M25.8,443c-0.2,0-0.2-0.3-0.1-0.4&#10;&#9;&#9;C25.9,442.6,25.8,442.9,25.8,443z M25.7,443.5c-0.1,0-0.1-0.2-0.1-0.3C25.8,443.1,25.7,443.4,25.7,443.5z M25.5,439&#10;&#9;&#9;c0,0.1-0.1,0.1,0,0.2c-0.1,0-0.1-0.1-0.1-0.2C25.5,438.9,25.5,439,25.5,439z M25.6,439.9v0.2C25.6,440.1,25.6,440,25.6,439.9&#10;&#9;&#9;c-0.1,0.2-0.1,0.1-0.1,0H25.6z M25.4,440.5c0,0-0.2-0.2-0.2-0.3C25.4,440.2,25.4,440.4,25.4,440.5z M25,441.1c0-0.1-0.1-0.2,0-0.4&#10;&#9;&#9;h0.2c0,0.1,0.1,0.3,0.2,0.2c0.2,0.1-0.1,0.2,0,0.3C25.2,441.1,25.1,441.1,25,441.1z M25.2,441.4c-0.1,0-0.1-0.1-0.1-0.3&#10;&#9;&#9;C25.2,441.2,25.2,441.3,25.2,441.4z M24.6,440.9c0.1,0,0.1-0.1,0.2-0.1c0,0.2,0,0.2,0.1,0.4C24.8,441.1,24.7,441,24.6,440.9z&#10;&#9;&#9; M24.8,441.2c-0.1,0.1,0,0.2-0.2,0.2c0-0.1-0.1-0.2,0-0.4C24.7,441,24.7,441.2,24.8,441.2z M24.8,440.2c-0.3-0.3-0.1-0.5,0-0.8&#10;&#9;&#9;c0.2,0.1,0,0.3,0.2,0.4C25,440,24.8,440,24.8,440.2z M25,439.2c0.1-0.1,0.1,0.2,0.1,0c0.1,0,0,0.1,0,0.2&#10;&#9;&#9;C25,439.4,24.9,439.4,25,439.2z M25.2,440.4c0.1,0.1,0.1,0.2,0.1,0.3c0,0,0-0.1,0-0.1c-0.1,0-0.1,0-0.1,0&#10;&#9;&#9;C25.1,440.6,25.2,440.5,25.2,440.4z M25.1,438.5c0.2,0,0.1,0.3,0,0.4C25.1,438.7,25,438.5,25.1,438.5z M25,438.6&#10;&#9;&#9;c0.1,0.1,0,0.2,0.1,0.3c-0.2-0.1-0.1,0-0.2,0.1C24.7,438.9,24.9,438.8,25,438.6z M24.8,438.6c-0.1-0.1,0-0.4,0-0.5&#10;&#9;&#9;c0.1-0.1,0.2-0.2,0.2-0.3C25,437.9,24.9,438.2,24.8,438.6z M24.8,438c-0.1-0.2-0.2,0.1-0.2,0.2C24.5,438.1,24.6,437.7,24.8,438&#10;&#9;&#9;c0-0.2,0-0.2,0-0.3c-0.2,0.1-0.1-0.1-0.1-0.3c0.1,0,0.1-0.1,0.2-0.1c0-0.1-0.1,0-0.2,0c0.1-0.1,0.1-0.2,0.2-0.3&#10;&#9;&#9;C25.3,437.2,24.9,437.7,24.8,438z M24.5,437.1c0.2,0,0-0.4,0.2-0.5c0.1,0.1,0.1,0.2,0.2,0.4C24.6,436.8,24.9,437.4,24.5,437.1&#10;&#9;&#9;c0.1,0.2,0.2,0.1,0.1,0.3C24.5,437.4,24.5,437.3,24.5,437.1z M24.5,438.3c0.1,0.1,0.1,0.2,0.1,0.3&#10;&#9;&#9;C24.4,438.7,24.5,438.4,24.5,438.3z M24.3,439.7c-0.3-0.1-0.1-0.2,0-0.4C24.5,439.4,24.3,439.5,24.3,439.7z M24.2,438.6&#10;&#9;&#9;c-0.1,0-0.2-0.1-0.1-0.2c0.1,0,0.1-0.1,0.2,0c0,0.1,0,0.1-0.1,0.1C24.1,438.5,24.2,438.5,24.2,438.6z M24.1,436.7&#10;&#9;&#9;c0.3,0.2-0.1,0.4,0,0.8c-0.1-0.1-0.1-0.3-0.2-0.4c-0.1,0-0.1,0.3,0,0.3c0,0.1-0.1,0.1-0.1,0.2C23.6,437.2,24.1,437,24.1,436.7z&#10;&#9;&#9; M24,437.4c0.2,0.2,0.1,0.6,0,0.8c0,0-0.1,0-0.1,0c0-0.2,0-0.3,0.1-0.5c-0.1,0-0.1,0-0.1,0c0,0,0,0.2-0.1,0.3&#10;&#9;&#9;C23.6,437.7,24,437.6,24,437.4z M23.9,441.1c0-0.2,0.1-0.1,0.1-0.3C24.1,440.9,24,441.1,23.9,441.1z M24,442.2&#10;&#9;&#9;c-0.1-0.1-0.2-0.4,0-0.4C24.1,441.9,24,442,24,442.2z M23.7,440.8c-0.1-0.2-0.1-0.3,0-0.4C23.8,440.3,23.6,440.6,23.7,440.8z&#10;&#9;&#9; M23.3,441.3c0,0.1,0.2,0.5,0,0.5C23.1,441.8,23.3,441.4,23.3,441.3z M23.3,442.2c0.2,0,0.1,0.3,0.1,0.4&#10;&#9;&#9;C23.3,442.5,23.2,442.3,23.3,442.2z M23.4,441.1c0.1,0,0.1,0.3,0,0.3C23.3,441.4,23.4,441.2,23.4,441.1z M23.5,440.5&#10;&#9;&#9;c0-0.2,0-0.2,0-0.4c0.1,0,0.1-0.1,0.2,0c-0.2,0.2,0,0.1,0,0.1C23.7,440.1,23.6,440.4,23.5,440.5z M23.6,438.9&#10;&#9;&#9;c-0.1,0-0.1-0.1-0.1-0.2c0,0,0.1,0.1,0.1,0C23.7,438.8,23.5,438.8,23.6,438.9z M23.3,437.7c0.1,0.1,0.1,0.2,0,0.3&#10;&#9;&#9;C23.2,437.9,23.3,437.8,23.3,437.7z M23.4,438.1c0.2,0,0.2,0.1,0.2,0.3c0,0.1-0.3,0.1-0.2,0.1c-0.1,0.2-0.1-0.2-0.3-0.1&#10;&#9;&#9;C23.3,438.3,23.4,438.3,23.4,438.1z M23.2,437.5c0,0.2,0,0.3-0.1,0.4C23,437.9,23,437.5,23.2,437.5z M23.1,439.8&#10;&#9;&#9;c-0.1,0-0.2-0.1-0.1-0.2C23.1,439.5,23.1,439.6,23.1,439.8z M22.9,440.2v-0.4C23,439.8,23.2,440.2,22.9,440.2z M23,436.8&#10;&#9;&#9;c-0.1-0.2,0-0.5,0-0.5C23.1,436.4,23,436.7,23,436.8z M23,436.2c0.1,0-0.1,0.1,0,0.1c-0.1,0-0.1-0.3,0.1-0.3&#10;&#9;&#9;C23.1,436.1,23,436.2,23,436.2C23,436.2,23,436.2,23,436.2z M23.1,435.6C23.1,435.6,23.1,435.6,23.1,435.6c0.1,0.1-0.1,0.2-0.1,0.4&#10;&#9;&#9;C22.8,435.9,23,435.7,23.1,435.6z M22.8,436.1c0.1,0,0,0.3,0,0.4c-0.2,0,0-0.4-0.1-0.2C22.6,436.3,22.8,436.2,22.8,436.1z&#10;&#9;&#9; M22.7,436.4c0,0.2,0.1,0.2,0.1,0.3h-0.1c0.2,0.4,0.3,0.5,0.2,0.9c-0.1,0,0-0.2-0.1-0.2c-0.2,0.1,0.1,0.2,0.1,0.4&#10;&#9;&#9;c-0.2,0-0.2-0.2-0.4-0.3c0-0.1,0.2-0.1,0.2-0.2c0-0.1-0.2,0.2-0.1,0c0-0.1-0.1,0-0.1,0.1c-0.1-0.1,0.1-0.3,0.1-0.4&#10;&#9;&#9;c-0.1,0-0.2,0.1-0.2,0.1C22.1,437.1,22.3,436.3,22.7,436.4z M22.4,442.6c0.1,0,0.1,0.2,0.1,0.4h-0.2c0,0,0.1,0,0.1,0&#10;&#9;&#9;C22.3,442.9,22.4,442.7,22.4,442.6z M22.4,441.9c0.1,0,0.1,0.1,0.2,0.1c-0.1,0.1,0,0,0.1,0c0,0.2-0.1,0.1-0.1,0.3&#10;&#9;&#9;C22.6,442,22.4,442.2,22.4,441.9z M21.5,441.5c0.1,0,0.3,0.1,0.3,0c0.1,0,0,0.3,0.1,0.3c-0.2,0-0.2,0-0.4,0&#10;&#9;&#9;C21.6,441.7,21.4,441.6,21.5,441.5z M21.2,442.7c-0.3-0.1-0.3-0.4-0.4-0.6c0.2,0,0.1,0.1,0.5,0.1c0,0.1,0.1,0.1,0.1,0.3&#10;&#9;&#9;c-0.1,0-0.2-0.1-0.3-0.1C21.2,442.5,21.3,442.6,21.2,442.7z M21,443.9c-0.1-0.2-0.2-0.5-0.3-0.8c0.4,0,0.5,0.7,0.4,1&#10;&#9;&#9;C21,444,21.1,443.9,21,443.9C21.1,443.7,21,443.8,21,443.9z M20.4,443.5c-0.2,0-0.2-0.2-0.2-0.4c-0.3,0.1-0.2-0.6-0.1-0.8&#10;&#9;&#9;c0.6-0.1,0.7,0.5,0.5,0.9c-0.1,0-0.1,0-0.1,0C20.3,443.3,20.4,443.3,20.4,443.5z M19.7,444c0.1,0.1,0.2,0.3,0.4,0.4&#10;&#9;&#9;C19.9,444.4,19.8,444.2,19.7,444z M19.9,445.2c-0.1,0-0.2-0.1-0.1-0.2C19.9,445.1,20,445.1,19.9,445.2z M19.7,445.1&#10;&#9;&#9;c-0.1,0-0.1-0.1-0.2-0.1c0.1-0.1,0.2-0.1,0.3,0C19.8,445,19.6,445,19.7,445.1z M18.9,440.4c-0.1,0.1-0.3-0.1-0.2-0.3&#10;&#9;&#9;c0,0,0.1,0,0.1,0c0-0.1-0.1,0-0.1,0v-0.2c0.1,0,0.2,0.1,0,0.1c0.1,0.1,0.2,0.2,0.3,0.3c0,0.1-0.1-0.1-0.1,0c0,0,0,0-0.1,0&#10;&#9;&#9;C18.8,440.2,18.8,440.3,18.9,440.4z M19.1,440.4c-0.1,0.1,0,0,0.1,0c0.1,0.1,0,0.2,0,0.3c-0.1-0.1-0.2-0.3-0.4-0.4&#10;&#9;&#9;C18.9,440.2,19,440.4,19.1,440.4z M19.6,438.3c0.3,0.3,0.4,0.3,0.6,0.7C19.9,438.9,19.6,438.7,19.6,438.3z M20.3,439.1&#10;&#9;&#9;c0,0.1,0,0.1,0,0.1c-0.1,0-0.3-0.2-0.4-0.3C19.9,438.8,20.1,439.1,20.3,439.1z M19.8,438.2c0.1-0.1,0.2,0.1,0.3,0.2&#10;&#9;&#9;C20,438.6,19.9,438.3,19.8,438.2z M19.7,437.6c-0.1-0.1,0.3,0.1,0.3,0.2C19.9,437.8,19.8,437.6,19.7,437.6z M19.7,437.1&#10;&#9;&#9;c-0.1,0,0-0.1,0-0.1c-0.2,0-0.1,0.2,0,0.3c-0.2,0-0.1-0.3,0-0.4C19.7,436.9,19.7,437,19.7,437.1z M19.6,437.8&#10;&#9;&#9;c-0.1,0.1-0.1-0.2-0.1-0.3C19.6,437.6,19.5,437.8,19.6,437.8z M19.5,438.1c-0.3,0.4,0.1,0.7,0.2,0.9c-0.2-0.1-0.3-0.3-0.5-0.4&#10;&#9;&#9;c0.1,0-0.2-0.3,0-0.5C19.4,438,19.4,438.1,19.5,438.1z M19.5,439.3c-0.2,0-0.2-0.3-0.3-0.5C19.4,438.9,19.3,439,19.5,439.3z&#10;&#9;&#9; M19.4,438.8c0.2,0.2,0.4,0.5,0.7,0.6c0,0.2,0.1,0.3,0.1,0.4C19.8,439.9,19.6,439.2,19.4,438.8z M20.8,441.7&#10;&#9;&#9;c-0.1,0-0.1-0.1-0.1-0.2c0.1,0,0.1,0,0.1,0c0.1,0.1,0.3,0.4,0.5,0.4v0.2C21.2,442,20.7,442,20.8,441.7&#10;&#9;&#9;C20.8,441.6,20.8,441.7,20.8,441.7z M20.5,441.9c0.1-0.1,0.2,0.1,0.2,0.2c-0.2-0.1,0.1,0.1,0,0.2C20.5,442.4,20.5,442.1,20.5,441.9&#10;&#9;&#9;C20.6,441.9,20.5,441.9,20.5,441.9z M20,443.5C19.9,443.6,19.9,443.5,20,443.5c-0.1-0.1-0.1-0.1-0.1,0c-0.1,0,0-0.2,0.1-0.2&#10;&#9;&#9;C19.9,443.4,20,443.4,20,443.5z M19.6,443.3c0.1-0.3-0.1-0.1-0.2-0.3c0.1-0.1,0.1-0.2,0.2-0.3v-0.1c0.2,0,0.1,0.3,0.2,0.4&#10;&#9;&#9;C19.8,443.2,19.8,443.3,19.6,443.3z M19.1,441.7c0-0.2,0-0.3,0.2-0.3C19.2,441.5,19.3,441.8,19.1,441.7z M19.3,442.3&#10;&#9;&#9;c0.1,0,0.1,0.2,0,0.3C19.3,442.5,19.3,442.4,19.3,442.3C19.3,442.3,19.3,442.3,19.3,442.3z M19.4,443.8c0,0.2,0.1,0.1,0.1,0.3&#10;&#9;&#9;c-0.1,0.1-0.2,0-0.3,0C19.2,443.9,19.2,443.8,19.4,443.8z M19.4,443.7c0-0.1,0.1,0,0.1-0.2c0.2,0.1,0,0.4,0.2,0.5&#10;&#9;&#9;C19.6,444.2,19.5,443.8,19.4,443.7z M19.7,442c0-0.1,0.1-0.1,0.1-0.1c0-0.1-0.2,0.1-0.1-0.1c-0.1,0.1-0.1,0-0.2,0&#10;&#9;&#9;c-0.1,0,0-0.2-0.1-0.2c0.2-0.1,0.4,0.2,0.9,0.1C20.3,442,20,442.1,19.7,442z M20.4,441.7c0.1,0.2-0.5,0.1-0.6,0&#10;&#9;&#9;C19.9,441.6,20.2,441.7,20.4,441.7C20.4,441.7,20.3,441.7,20.4,441.7C20.3,441.7,20.4,441.7,20.4,441.7z M20.5,442.1&#10;&#9;&#9;c0,0.1-0.1,0-0.2,0C20.3,442,20.5,442,20.5,442.1z M20.2,440.9c-0.1-0.1-0.3-0.1-0.2-0.3C20.1,440.7,20.2,440.8,20.2,440.9z&#10;&#9;&#9; M20,440.2c0.1-0.1,0.3,0.3,0.4,0.2c0.1,0.1,0.1,0.2,0,0.2C20.1,440.6,20.1,440.3,20,440.2z M20,441c0.1,0,0.5,0.1,0.4,0.4&#10;&#9;&#9;C20.2,441.3,20.2,441.1,20,441z M20.2,441.2c-0.1,0.1-0.4-0.1-0.5-0.1c0-0.2-0.1-0.4-0.1-0.5C19.9,440.6,19.9,441,20.2,441.2z&#10;&#9;&#9; M20.6,441.1c0.1,0.1,0.2,0.3,0.2,0.2c0.1,0,0,0.1,0,0.1h-0.1C20.7,441.3,20.6,441.3,20.6,441.1z M21,441.4&#10;&#9;&#9;c0.2,0.1,0.4,0.1,0.3,0.4C21.2,441.7,21,441.7,21,441.4z M21.2,439.8c0.3-0.3,0.2,0.2,0.4,0.3C21.5,440.2,21.2,439.9,21.2,439.8z&#10;&#9;&#9; M21.2,438.4C21.1,438.4,21.3,438.4,21.2,438.4c0.1,0.2,0,0.2,0,0.3C21.1,438.6,21.3,438.5,21.2,438.4&#10;&#9;&#9;C21.3,438.4,21.3,438.4,21.2,438.4z M21.1,436c0.1,0.1,0.2,0.1,0.3,0.3C21.2,436.4,21.1,436.2,21.1,436z M21.2,437.1&#10;&#9;&#9;c0-0.1,0.1,0,0.1,0c0,0.1-0.1,0.2-0.2,0.3C20.9,437.3,21.3,437.2,21.2,437.1z M21.2,438.1c-0.1-0.2-0.3-0.2-0.2-0.4&#10;&#9;&#9;c0.1,0,0.1,0,0.1-0.1C21.2,437.7,21.2,437.8,21.2,438.1z M21.1,441c-0.1,0-0.2-0.1-0.2-0.1C20.9,441,21,441.1,21.1,441&#10;&#9;&#9;c0.1,0.1,0,0.2,0,0.3c0,0,0,0,0,0c0,0,0,0,0,0c-0.1,0.1-0.6-0.4-0.2-0.8C21,440.6,21.1,440.7,21.1,441z M20.5,439.6&#10;&#9;&#9;c0.2,0.1,0.3,0.4,0.3,0.6C20.5,440.1,20.6,439.8,20.5,439.6z M20.4,437.6c0.1,0.1,0.2,0.2,0.1,0.4&#10;&#9;&#9;C20.4,437.9,20.4,437.7,20.4,437.6z M20.6,440.6c-0.1-0.2-0.2-0.1-0.4-0.4C20.3,440,20.7,440.2,20.6,440.6z M20.2,440.2&#10;&#9;&#9;c0-0.1-0.2-0.1-0.1-0.2c-0.1,0-0.1,0-0.1,0c-0.1-0.1-0.2-0.3-0.3-0.4C19.9,439.9,20.1,439.9,20.2,440.2z M20,440.5&#10;&#9;&#9;c-0.1,0.1-0.4,0-0.6,0c0-0.1,0.1-0.3,0.1-0.5C19.9,440,19.9,440.3,20,440.5z M19.5,440.9c-0.1,0.1-0.1,0-0.2,0&#10;&#9;&#9;c0-0.1,0.1-0.1,0.1-0.3C19.5,440.6,19.5,440.8,19.5,440.9z M20.4,441.5c-0.2,0-0.6,0-0.8,0c0,0,0-0.1,0-0.2c-0.2,0-0.1,0.2-0.2,0.1&#10;&#9;&#9;c-0.1-0.2-0.1-0.2,0-0.3c-0.1-0.1-0.1,0-0.2-0.2C19.5,441.3,20.1,441.3,20.4,441.5z M19.3,444.5c0.1,0.1,0,0.3,0.2,0.3&#10;&#9;&#9;c0,0-0.3,0.2-0.6,0.1C18.9,444.7,19.1,444.5,19.3,444.5z M19.7,443.8c0.2-0.1,0.3,0.1,0.4,0.3C19.9,444.1,19.8,443.9,19.7,443.8z&#10;&#9;&#9; M19.9,442.3c0.1,0.2,0.1,0.8,0.1,1.1C19.9,443.1,19.7,442.6,19.9,442.3z M20.6,443.7c0.1,0.1,0.2,0.2,0.2,0.3&#10;&#9;&#9;C20.7,443.9,20.5,443.8,20.6,443.7z M20.6,443.3c0.1,0.1,0.1,0.2,0.1,0.4C20.6,443.5,20.7,443.5,20.6,443.3z M20.8,442.7&#10;&#9;&#9;c0-0.1,0.1,0,0.1,0.1c0.1-0.1,0,0.1,0.1,0.1c-0.1,0.2-0.1-0.1-0.2,0C20.7,442.8,20.9,442.7,20.8,442.7z M21.4,440.4h0.2&#10;&#9;&#9;c0.1,0.1,0,0.3,0.1,0.4C21.6,440.7,21.4,440.6,21.4,440.4z M22.4,439.1C22.4,439.1,22.3,439,22.4,439.1c-0.2,0-0.2-0.4-0.4-0.5&#10;&#9;&#9;c0.1-0.1,0.2-0.1,0.4,0C22.3,438.8,22.5,438.8,22.4,439.1z M22.4,437.7c0.2,0.1,0.2,0.3,0.1,0.4C22.4,438,22.4,437.9,22.4,437.7z&#10;&#9;&#9; M22,440c-0.3-0.2,0-0.7,0-1C22.5,439.2,22,439.9,22,440z M21.9,439.3c0,0.5-0.1-0.1,0-0.3c-0.2,0.1-0.2,0.3-0.3,0.4&#10;&#9;&#9;c0.1-0.1,0.2-0.6,0.3-0.8c0.1,0.1,0.1,0.4,0.1,0.5C21.9,439.2,21.9,439.2,21.9,439.3z M21.8,439.8c0,0.1-0.1-0.2-0.2-0.2&#10;&#9;&#9;c0-0.1,0.1-0.2,0.2-0.3C21.7,439.5,21.8,439.7,21.8,439.8z M21.8,441.1c0,0.1-0.2,0-0.2-0.2C21.7,441,21.7,441.1,21.8,441.1z&#10;&#9;&#9; M21.5,441.1c0.1,0,0,0.2,0.2,0.2c0,0-0.1,0-0.1,0.1C21.4,441.4,21.5,441.3,21.5,441.1z M21.8,442c0.1,0,0.1,0,0.1,0&#10;&#9;&#9;c0.2,0,0,0.3-0.1,0.3C21.8,442.2,21.9,442.1,21.8,442z M22.1,442.1c0.2,0,0,0.2,0.1,0.2c0,0.1-0.1,0-0.2,0&#10;&#9;&#9;C22,442.2,22.1,442.2,22.1,442.1z M22.1,439.9c0.1,0,0.1,0.1,0.1,0.2C22.1,440.1,22,440,22.1,439.9z M22.3,440.2&#10;&#9;&#9;c0.2,0,0.1,0.4-0.1,0.4C22.2,440.3,22.3,440.3,22.3,440.2z M22.5,439.5c0.1,0,0.1,0.3,0,0.4C22.3,439.9,22.4,439.6,22.5,439.5z&#10;&#9;&#9; M22.2,437.7c0.1,0.1,0.1,0.4-0.1,0.4c0-0.1-0.1-0.1-0.1-0.2C22.2,437.8,22.2,437.8,22.2,437.7z M22.1,436.8&#10;&#9;&#9;c-0.1,0.1-0.2,0.2-0.3,0.2C21.8,437,21.9,436.8,22.1,436.8z M21.8,435c0.1,0.1,0,0.3,0,0.4C21.7,435.3,21.7,435.1,21.8,435z&#10;&#9;&#9; M21.8,435.8c0.1,0.1,0,0.3,0,0.4c-0.1,0-0.1-0.1,0-0.1c0-0.1,0-0.1-0.1-0.1C21.7,435.9,21.8,435.9,21.8,435.8z M21.6,437.3&#10;&#9;&#9;C21.7,437.3,21.7,437.3,21.6,437.3L21.6,437.3c0.2,0.1-0.1,0.2,0,0.3C21.5,437.5,21.7,437.4,21.6,437.3z M21.6,438&#10;&#9;&#9;c0,0-0.2,0-0.1-0.2c0.1,0,0.2-0.1,0.3,0c-0.1-0.1,0.2-0.2,0.2-0.3c0,0.2-0.1,0.8-0.5,0.9C21.5,438.2,21.5,438.1,21.6,438z&#10;&#9;&#9; M21.5,438.8C21.6,438.8,21.6,438.9,21.5,438.8c0.1,0,0.1,0.4-0.1,0.4C21.4,439.1,21.5,439,21.5,438.8z M21.4,435.7L21.4,435.7&#10;&#9;&#9;c0.1,0.1,0,0.2,0,0.4c-0.1,0-0.2-0.1-0.2-0.2C21.2,435.8,21.3,435.8,21.4,435.7z M21.3,435.4c-0.1,0.2,0,0.4-0.2,0.5&#10;&#9;&#9;C21.1,435.8,21,435.3,21.3,435.4z M21.1,436.5c-0.1,0,0-0.2,0-0.3C21.2,436.2,21.1,436.4,21.1,436.5z M21,435.4&#10;&#9;&#9;c-0.1,0.1,0,0.4-0.1,0.4c-0.3-0.2-0.2-0.7-0.2-0.9C20.8,434.9,20.8,435.3,21,435.4z M20.6,435.7c0,0.2,0,0.2,0,0.4&#10;&#9;&#9;c-0.1-0.2-0.2-0.2-0.3-0.6C20.5,435.5,20.4,435.7,20.6,435.7z M20.4,439.5C20.4,439.6,20.3,439.7,20.4,439.5c0.1,0.2-0.1,0.3,0,0.4&#10;&#9;&#9;c-0.1-0.1-0.1-0.2-0.2-0.4C20.2,439.5,20.3,439.5,20.4,439.5z M20.3,437.3c-0.1-0.1-0.3-0.1-0.2-0.3c0,0,0.2,0.3,0.1,0.1&#10;&#9;&#9;C20.2,437.1,20.3,437.2,20.3,437.3z M20,434.3c0.2,0.1,0.1,0.3,0.2,0.4c-0.2,0.1,0.1,0.4,0,0.8c-0.2-0.1-0.1-0.3-0.3-0.3&#10;&#9;&#9;c0-0.1,0.1-0.1,0-0.2C19.8,435.2,20,434.5,20,434.3z M19.9,435.3c0.2,0.1,0.2,0.3,0.3,0.4c0,0.4-0.1,0.5,0,0&#10;&#9;&#9;c-0.1,0-0.1,0.1-0.1,0.2c-0.1-0.1,0.1-0.2,0-0.3c0-0.1-0.1,0-0.1-0.2c0,0-0.1,0-0.1,0.1C19.8,435.6,19.9,435.4,19.9,435.3z&#10;&#9;&#9; M19.7,436.2c0,0.1-0.1,0-0.1,0c0.1,0,0.2,0.1,0.3,0.1c-0.1,0.2,0.2,0.3,0.2,0.6c-0.1,0-0.1-0.1-0.2-0.1c0-0.1,0.1-0.2,0-0.3&#10;&#9;&#9;c0,0-0.1,0-0.1,0.1c-0.1-0.2-0.2-0.2-0.2-0.4C19.5,436.2,19.6,436.2,19.7,436.2z M19.6,436.8c-0.1,0-0.1,0.1-0.2,0.1&#10;&#9;&#9;c0-0.2,0.1-0.2,0-0.4C19.6,436.6,19.6,436.7,19.6,436.8z M18.8,436.2c0.1,0.1,0.1,0.2,0.1,0.3C18.8,436.4,18.8,436.3,18.8,436.2z&#10;&#9;&#9; M18.8,435.6c0-0.1,0.1-0.2,0.1-0.4c0.3,0,0.3,0.3,0.5,0.4c-0.1,0,0,0.2,0,0.3C19.2,436.1,19.1,435.4,18.8,435.6z M19,435.8&#10;&#9;&#9;c0.1,0.1,0.3,0.2,0.4,0.3c-0.1,0.1-0.1,0.1,0,0.1c0,0.4-0.1,0.8,0,1c-0.3,0-0.4-0.6-0.3-1C19,436.2,18.9,435.9,19,435.8z&#10;&#9;&#9; M18.7,437.1c0.4,0.2,0.6,0.4,0.8,0.8c-0.2,0-0.4-0.3-0.4-0.2c0-0.1,0-0.2,0-0.4c-0.2,0-0.1,0.1-0.1,0.3&#10;&#9;&#9;C18.7,437.6,18.7,437.3,18.7,437.1z M19.1,438.5c-0.2,0-0.1-0.2-0.1-0.4C19.1,438.1,19.1,438.3,19.1,438.5z M19.2,439.2&#10;&#9;&#9;c0,0.1-0.1-0.1-0.2-0.1c-0.2,0.1,0.2,0.2,0.1,0.3c0.3,0,0.4,0.2,0.4,0.5c-0.4-0.2-0.6-0.5-0.8-1C19,438.7,19.1,439,19.2,439.2z&#10;&#9;&#9; M18.5,438.9c-0.1-0.1-0.1-0.2-0.2-0.3c0-0.1,0.2,0,0.2,0C18.6,438.8,18.5,438.8,18.5,438.9z M18.6,438.7c0.1,0,0.1,0.1,0.2,0&#10;&#9;&#9;c0.1,0.7,0.4,0.8,0.8,1.2c0,0.1-0.2,0.3-0.1,0.4c-0.2,0.1-0.2-0.4-0.4-0.4c-0.1,0.1,0,0.1,0,0.3C18.7,439.7,18.6,439.5,18.6,438.7z&#10;&#9;&#9; M18.3,440.2c0.2,0,0.2,0.2,0.4,0.2c0,0.2-0.1,0.3-0.1,0.5c-0.2,0,0-0.3,0-0.4c-0.3,0.2-0.1-0.1-0.3-0.2&#10;&#9;&#9;C18.3,440.3,18.3,440.3,18.3,440.2z M18.4,441.9C18.4,441.8,18.5,441.8,18.4,441.9c-0.1-0.2,0.1-0.6,0.1-0.7&#10;&#9;&#9;C18.8,441.3,18.7,441.8,18.4,441.9z M18.7,441.8c0.1,0.1,0,0.3-0.1,0.3C18.6,441.9,18.7,441.9,18.7,441.8z M18.2,444.8&#10;&#9;&#9;C18.2,444.7,18.3,444.8,18.2,444.8c0.2,0,0.1,0.1,0,0.2C18.1,445,18.3,444.8,18.2,444.8z M18.3,441.3c-0.1-0.1-0.1-0.2-0.1-0.4&#10;&#9;&#9;C18.3,441,18.3,441.2,18.3,441.3z M17.8,439.9c0.1-0.1,0.2,0,0.3,0.1c0,0.2,0,0.2,0,0.4c-0.1,0-0.2-0.1-0.3-0.2&#10;&#9;&#9;c-0.1,0.1,0.1,0.1,0.1,0.3c0.1-0.1,0.1,0,0.2,0c0.1,0.3-0.2,0.5-0.2,0.8c-0.1-0.1,0-0.3,0-0.5c-0.1,0-0.1,0-0.1,0&#10;&#9;&#9;C17.9,440.5,17.8,440.2,17.8,439.9C17.8,439.9,17.8,439.9,17.8,439.9z M17.7,440.8c-0.2-0.2-0.3-0.6,0-0.8&#10;&#9;&#9;C17.7,440.4,17.6,440.6,17.7,440.8z M17.6,441.2c-0.1,0-0.1-0.2-0.1-0.3c0,0,0.1,0,0.2,0C17.7,441.1,17.6,441.1,17.6,441.2z&#10;&#9;&#9; M17.6,439.9c0,0.1-0.1,0.1-0.1,0.2c-0.1,0,0-0.1,0-0.2H17.6z M16.6,438.9C16.7,439,16.7,439,16.6,438.9c0.2,0.1,0.3,0.2,0.3,0.4&#10;&#9;&#9;c-0.1,0.1-0.1,0.2-0.2,0.4c-0.1-0.1,0-0.2,0-0.3c-0.1,0.1-0.2-0.1-0.2,0.2c-0.1,0.1,0.1-0.4-0.1-0.4c-0.1,0,0,0,0,0.1&#10;&#9;&#9;c-0.1,0.1,0-0.2-0.1-0.1C16.4,439.2,16.7,439.2,16.6,438.9z M17.1,440.9c0,0.1-0.1,0-0.1,0C17,440.9,17,441,17.1,440.9&#10;&#9;&#9;c0,0.2-0.1,0.2,0,0.3c-0.1-0.1-0.2-0.2-0.3-0.3c0.1-0.1,0.1-0.2,0-0.3c0-0.1,0.1,0.1,0.1,0.2C17,440.7,17,440.9,17.1,440.9z&#10;&#9;&#9; M17,442.2C17,442.2,17,442.2,17,442.2c0.1,0,0.2,0,0.3,0.1C17.2,442.3,17.1,442.3,17,442.2L17,442.2L17,442.2&#10;&#9;&#9;c-0.3-0.2-0.5-0.6-0.2-0.8c0,0.1,0,0.1,0,0.1c0.1,0.1,0.8,0.9,0.2,0.4c-0.1-0.1,0-0.2-0.2-0.2C16.8,442,17,441.9,17,442.2z&#10;&#9;&#9; M17,442.9c0.1-0.1,0.2,0.2,0.1,0.4c0,0-0.1,0-0.2,0L17,442.9L17,442.9C17.1,442.9,17,442.9,17,442.9z M17.1,442.7&#10;&#9;&#9;c0-0.1,0.1,0,0.1,0c0,0.1,0.1,0.1,0,0.2C17.2,442.9,17.2,442.8,17.1,442.7z M17.3,442.6c-0.2-0.1-0.6,0-0.7-0.4c0,0-0.1,0-0.1,0&#10;&#9;&#9;c0.1,0.1,0.1,0.2,0.2,0.2c0,0.1-0.1,0.2,0,0.4c-0.2-0.1-0.3-0.4-0.2-0.6c0-0.1-0.1,0-0.1,0c0-0.2-0.2-0.4-0.1-0.5&#10;&#9;&#9;c-0.1,0-0.2-0.2-0.2-0.4c0.1-0.1,0.2,0.1,0.2,0c0.1,0,0,0.1,0,0.2c-0.1,0-0.1-0.1-0.2-0.1c0.1,0.2,0.3,0.4,0.3,0.5&#10;&#9;&#9;c0.1-0.1,0.1,0,0,0.1c0.3-0.4,0.4,0.4,0.9,0.4V442.6z M16.9,443.1c-0.1,0-0.3-0.2-0.2-0.4C17,442.7,16.7,443.1,16.9,443.1z&#10;&#9;&#9; M16.6,443c0,0.2-0.2,0-0.2-0.2C16.5,442.8,16.5,443,16.6,443z M16.2,442.8c-0.2,0-0.1-0.2-0.1-0.4&#10;&#9;&#9;C16.2,442.5,16.2,442.7,16.2,442.8z M15.6,443.5C15.6,443.5,15.7,443.5,15.6,443.5c0.2-0.1,0,0,0.2,0&#10;&#9;&#9;C15.8,443.6,15.4,443.6,15.6,443.5C15.6,443.5,15.7,443.6,15.6,443.5z M15.6,442.9c0,0,0.2,0.1,0.1,0.1c0,0,0.1,0,0.1,0.1&#10;&#9;&#9;C15.7,443.1,15.5,443,15.6,442.9z M15.5,440.7c0.2,0.1,0,0.2,0,0.4C15.5,441,15.6,440.8,15.5,440.7z M15.6,440.6&#10;&#9;&#9;C15.5,440.6,15.6,440.6,15.6,440.6c0-0.1,0-0.1,0-0.1C15.6,440.3,15.8,440.6,15.6,440.6C15.6,440.6,15.6,440.6,15.6,440.6&#10;&#9;&#9;C15.7,440.5,15.6,440.6,15.6,440.6z M15.6,442.1c-0.1-0.1-0.3-0.3-0.3-0.5C15.5,441.7,15.5,441.9,15.6,442.1z M15.6,441.3&#10;&#9;&#9;c0.3,0.2,0.1,0.7,0.3,1C15.7,442.1,15.8,441.5,15.6,441.3z M15.8,440.9c0-0.1,0.1-0.1,0.2-0.1C16,440.9,16,440.9,15.8,440.9&#10;&#9;&#9;c0.3,0,0.2,0.3,0.4,0.4c0,0.1-0.3,0-0.3,0C15.9,441.1,16.1,440.9,15.8,440.9z M16,440.5c-0.2,0-0.1-0.1-0.1-0.3c0.1,0,0.1,0,0.1,0&#10;&#9;&#9;C15.9,440.4,15.9,440.4,16,440.5z M16.4,441.2c0-0.1-0.1-0.1-0.1-0.2c0-0.1,0.1-0.1,0.1-0.2c0.1,0.1,0.3,0.1,0.3,0.3&#10;&#9;&#9;C16.5,441.1,16.5,441.3,16.4,441.2z M16.6,441.4c0,0.1-0.1,0.1-0.1,0.1c-0.1,0,0-0.1-0.1-0.1C16.4,441.3,16.5,441.4,16.6,441.4z&#10;&#9;&#9; M16.1,440.4c0.1,0.1,0.2,0.1,0.3,0.2C16.3,440.6,16.1,440.6,16.1,440.4z M16,440.2c0.2,0,0.4,0.2,0.5,0.4&#10;&#9;&#9;C16.3,440.5,16.2,440.2,16,440.2z M16.8,440.7c-0.1-0.1-0.1-0.3-0.1-0.4C16.8,440.3,16.8,440.6,16.8,440.7z M16.5,440.2&#10;&#9;&#9;c-0.2,0.1-0.2-0.5-0.3-0.8C16.5,439.5,16.3,440,16.5,440.2z M16.4,440.2c-0.1,0.1-0.2-0.2-0.4-0.2c0.2-0.1,0-0.2,0-0.3&#10;&#9;&#9;C16.2,439.8,16.2,440.1,16.4,440.2z M16.1,438.9c0,0.1-0.1,0,0,0.1c0,0.1-0.2-0.2-0.1-0.2C16,438.6,16,438.9,16.1,438.9z M15.8,439&#10;&#9;&#9;c0.1,0,0.1,0.1,0.2,0.1c0,0.2-0.1,0.2,0,0.3c-0.1,0-0.1-0.1,0-0.1c0-0.1-0.1,0-0.1,0V439z M15.8,439.3c0.2,0.1,0.1,0.4,0,0.5&#10;&#9;&#9;C15.7,439.8,15.8,439.5,15.8,439.3z M15.7,440.2c-0.1,0-0.2-0.1-0.1-0.3C15.6,440,15.7,440,15.7,440.2c0-0.1,0-0.1,0-0.1&#10;&#9;&#9;C15.8,440.1,15.6,440.2,15.7,440.2z M15.6,438.6c0.1,0.1,0.1,0.2,0.1,0.3c0,0,0,0,0,0c-0.1,0,0.1,0.1,0,0.2&#10;&#9;&#9;C15.5,439,15.6,438.8,15.6,438.6z M15.6,439.1c0.2,0,0,0.7,0.1,0.7c-0.1,0.1-0.2-0.2,0-0.2c-0.1,0-0.1,0-0.1,0&#10;&#9;&#9;C15.4,439.5,15.6,439.3,15.6,439.1z M15.5,441.4c0,0-0.2-0.1-0.1-0.3C15.5,441.2,15.5,441.3,15.5,441.4z M15.2,439.1&#10;&#9;&#9;c0-0.1,0.1,0,0.1,0c0,0.1,0.2,0.2,0,0.5C15.3,439.5,15.3,439.1,15.2,439.1z M15.3,440.5c0.1,0.1-0.1,0.2,0,0.2&#10;&#9;&#9;C15.3,440.9,15.1,440.4,15.3,440.5z M15,440.6c-0.1,0.3,0.1,0.5,0.3,0.9C15.2,441.3,14.7,440.8,15,440.6z M14,440&#10;&#9;&#9;c0.4,0.3,0.8,0.9,0.9,1.3c-0.1,0-0.1,0,0,0c-0.1-0.1-0.2,0-0.4,0c0-0.2,0-0.3,0.1-0.4c-0.1,0-0.1-0.1-0.2-0.1&#10;&#9;&#9;c-0.1,0-0.1,0.1-0.1,0.2c-0.1,0-0.1-0.1-0.1,0.1c-0.2-0.2,0-0.6-0.1-0.7c0,0,0,0.1-0.1,0.1c0,0.5-0.1,0.1,0-0.1&#10;&#9;&#9;c-0.1,0-0.1-0.2-0.1-0.3C14,439.9,14,439.9,14,440z M14.8,441.9c-0.1,0-0.2,0-0.3,0c0-0.2,0-0.5,0.1-0.6c0.1,0.1,0.1,0.1,0.2,0&#10;&#9;&#9;c0,0.1,0,0.3-0.1,0.3C14.9,441.6,14.8,441.7,14.8,441.9z M14.6,442.1c0-0.1,0.2,0,0.2,0v0.2c-0.1,0-0.1-0.1,0-0.1&#10;&#9;&#9;C14.7,442.1,14.7,442.2,14.6,442.1z M14.2,444.8C14.2,444.7,14.2,444.7,14.2,444.8c-0.1-0.1,0-0.1,0-0.1c0.1,0.1,0.1,0.2,0.2,0.3&#10;&#9;&#9;h-0.2c0,0,0,0,0,0C14.3,444.8,14.2,445,14.2,444.8z M14.4,443.4c-0.2-0.1-0.3-0.4-0.2-0.6C14.7,442.7,14.6,443.2,14.4,443.4z&#10;&#9;&#9; M14.5,441.1c-0.1-0.1-0.1-0.1-0.2-0.1c0.1-0.2,0.2-0.2,0.2-0.4C14.6,440.8,14.4,441,14.5,441.1z M13.7,441.1&#10;&#9;&#9;c-0.1-0.1-0.3-0.2-0.4-0.4c-0.1,0-0.1-0.1-0.1-0.2C13.4,440.7,13.8,440.8,13.7,441.1z M14,441.2c0,0,0-0.1,0-0.1&#10;&#9;&#9;c-0.1,0-0.1,0.1-0.1,0.1c-0.2,0,0.1-0.2,0-0.2c0.3-0.1,0.6,0.4,0.6,0.8C14,441.7,13.8,441.4,14,441.2z M14.3,441.2&#10;&#9;&#9;c0.1-0.2,0.2,0.2,0.1,0.3C14.3,441.5,14.4,441.3,14.3,441.2z M14.5,442.5c-0.1,0.1,0,0.1,0,0.2c-0.1,0-0.1-0.1-0.1-0.1&#10;&#9;&#9;c-0.1,0-0.1,0.1-0.1,0.1c0,0.1,0.2,0,0.1,0.1c-0.2,0-0.2,0-0.4,0C13.9,442.5,14.2,442.5,14.5,442.5z M14.1,442.8&#10;&#9;&#9;c-0.1,0,0,0.3-0.1,0.2c0,0,0,0,0,0c0-0.1-0.2-0.1-0.2-0.2C14,442.8,14,442.9,14.1,442.8z M13.8,444.6c0.1,0.2,0.2,0,0.4,0.3&#10;&#9;&#9;c-0.1,0.1-0.2-0.1-0.4-0.1V444.6z M14.1,445.2c-0.1,0.1-0.3-0.1-0.4-0.1C13.5,445,14,445.1,14.1,445.2z M13.8,444.3&#10;&#9;&#9;c0,0.1-0.1,0-0.2,0c0.1-0.1-0.1,0-0.1-0.2c0.1,0,0.1,0,0.1,0.1C13.7,444.2,13.7,444.2,13.8,444.3z M13.4,443.7&#10;&#9;&#9;c0.2,0,0.1,0.2,0.3,0.3c0,0.1-0.2,0-0.2,0C13.5,443.9,13.5,443.7,13.4,443.7z M13.4,442.1c0.2,0,0.2,0.2,0.3,0.2c0,0.1,0,0.2,0,0.3&#10;&#9;&#9;c0-0.1-0.3-0.2-0.1-0.2c0-0.1-0.1,0-0.1,0C13.5,442.2,13.4,442.2,13.4,442.1z M13.5,443.4C13.5,443.4,13.5,443.4,13.5,443.4&#10;&#9;&#9;c0,0.2,0.1,0,0,0.2c-0.2,0-0.4,0-0.4-0.2C13.3,443.4,13.3,443.4,13.5,443.4z M13.2,443.6C13.2,443.7,13.2,443.7,13.2,443.6&#10;&#9;&#9;c0.2,0.1,0,0,0.2,0c0,0.1,0.1,0.3-0.1,0.3c0,0,0,0,0,0C13.2,443.9,13.1,443.9,13.2,443.6z M13.2,444.5c0,0.1-0.1,0.1-0.1,0.1&#10;&#9;&#9;c-0.1,0-0.1-0.1-0.2-0.1C12.9,444.5,13.1,444.6,13.2,444.5z M12.8,443.3c0.2,0.2,0.2,0.1,0.3,0.3C12.9,443.6,12.8,443.5,12.8,443.3&#10;&#9;&#9;z M12.8,443.9c0-0.1,0.1,0.1,0.3,0c0,0.1,0,0.1,0,0.1c0,0.1,0,0,0,0C13.1,444.2,12.8,443.9,12.8,443.9z M12.8,444.3&#10;&#9;&#9;c0-0.1,0.2,0.1,0.4,0.1C13,444.5,12.8,444.3,12.8,444.3z M12.1,444.7c0-0.1,0.1-0.1,0-0.2c0.3,0.6,0.5,0.6,1,1&#10;&#9;&#9;C12.5,445.4,12.5,445,12.1,444.7z M13.2,445.4c-0.1-0.2-0.1,0-0.4-0.2v-0.3c0.3,0,0.4,0.1,0.5,0.4H13.2z M13.5,444.8&#10;&#9;&#9;c0,0.1-0.1-0.1-0.2,0c0.1-0.1,0-0.1,0-0.3C13.3,444.6,13.6,444.6,13.5,444.8c0-0.1,0-0.2-0.1-0.2C13.3,444.7,13.4,444.8,13.5,444.8&#10;&#9;&#9;z M14,445.5h-0.3C13.7,445.4,13.8,445.5,14,445.5C14,445.5,14,445.5,14,445.5z M13.5,445.2c0.1,0,0.5,0.1,0.8,0.2&#10;&#9;&#9;C14.1,445.4,13.7,445.3,13.5,445.2z M14.4,445.1c-0.1-0.1,0.2,0.1,0.3,0.2C14.5,445.4,14.4,445.1,14.4,445.1z M14.8,443.4&#10;&#9;&#9;C14.8,443.3,14.8,443.3,14.8,443.4c0.1-0.2-0.1-0.1-0.1-0.1c0.1,0,0.1,0.1,0.1,0.3h-0.1C14.6,443.4,14.6,443.4,14.8,443.4&#10;&#9;&#9;c-0.2-0.1-0.1-0.4,0-0.4c0,0,0,0,0,0c0,0.1,0.1-0.1,0.1,0c0,0.1-0.1,0-0.1,0c0,0.1,0.1,0,0.1,0c0,0.1,0,0.1,0.1,0.1&#10;&#9;&#9;C15,443.4,14.8,443.3,14.8,443.4z M15,445.1c-0.2,0.1-0.1-0.1-0.1-0.3C15.1,444.8,14.9,445.1,15,445.1z M15,441.8&#10;&#9;&#9;c-0.1-0.1,0-0.3,0-0.5C15.1,441.4,15,441.8,15,441.8z M15.3,442c-0.1-0.1-0.1-0.2-0.1-0.4C15.2,441.7,15.3,441.8,15.3,442z&#10;&#9;&#9; M15.3,442.2C15.2,442.2,15.2,442.2,15.3,442.2c0.1,0.1-0.1,0,0,0.2c0.2-0.3,0.4,0.2,0.3,0.4c-0.1,0-0.2-0.1-0.3-0.1&#10;&#9;&#9;C15.2,442.5,15.1,442.2,15.3,442.2z M15.3,443.1C15.2,443,15.3,442.9,15.3,443.1c0.1,0,0.2,0.2,0,0.2&#10;&#9;&#9;C15.4,443.2,15.3,443,15.3,443.1z M15.4,444.8c0.1,0.1,0,0.2,0,0.4c-0.1-0.1-0.1-0.2-0.1-0.3c0.2,0.1,0,0-0.1,0&#10;&#9;&#9;C15.3,444.8,15.4,444.8,15.4,444.8C15.5,444.8,15.5,444.8,15.4,444.8z M15.5,445.5c0-0.1,0-0.2,0-0.3c0,0.1,0.1,0.2,0.1,0.3H15.5z&#10;&#9;&#9; M15.8,445.1c-0.1,0,0-0.1-0.1-0.1c0-0.1,0.2,0.1,0.2,0.1c0,0.1,0,0.2,0,0.3C16,445.3,15.7,445.1,15.8,445.1&#10;&#9;&#9;C15.9,445,15.8,445,15.8,445.1z M15.9,445.5c0-0.1,0-0.1,0-0.2c0.1,0,0.1,0.1,0.1,0.2H15.9z M15.9,441.6c0.1,0.1,0.1,0.4,0.2,0.4&#10;&#9;&#9;C16,442.1,15.9,441.8,15.9,441.6z M16.2,445.3c-0.1,0,0-0.2-0.1-0.3c0.1,0,0.1,0,0.1,0C16.2,445.2,16.1,445.2,16.2,445.3z&#10;&#9;&#9; M16.2,445.5c0-0.1,0.1-0.2,0.1-0.3h0.1c0,0.1,0,0.2,0.1,0.3H16.2z M16.5,444.3c-0.1-0.1,0-0.3-0.1-0.4&#10;&#9;&#9;C16.5,443.9,16.6,444.2,16.5,444.3z M16.5,443.4c0.2,0.2,0.2,0.5,0.3,0.6C16.5,443.8,16.5,443.8,16.5,443.4z M16.8,443.8&#10;&#9;&#9;c-0.1-0.1-0.1-0.3-0.1-0.4C16.9,443.5,16.9,443.6,16.8,443.8z M17,444.1c-0.1,0,0-0.3,0-0.3C17.1,443.6,17,444,17,444.1z&#10;&#9;&#9; M17.1,445.3C17.1,445.3,17.2,445.3,17.1,445.3c0-0.1-0.1,0-0.1-0.2c0.1,0,0.2,0.1,0.3,0.2H17.1z M17.4,444.3&#10;&#9;&#9;c-0.1,0.1-0.4-0.5,0-0.4C17.3,444,17.2,444.2,17.4,444.3z M17.2,443.8c0,0,0-0.1,0-0.1c0.1,0,0.2,0,0.2,0.1&#10;&#9;&#9;C17.3,443.7,17.3,443.8,17.2,443.8z M17.2,443.1c0.1-0.1,0.2,0.1,0.2,0.3C17.2,443.4,17.3,443.1,17.2,443.1z M17.3,439.8&#10;&#9;&#9;c-0.1,0-0.2-0.1-0.3-0.2c-0.1,0,0.1,0.1,0,0.1c0.1,0.1,0.4,0.2,0.4,0.4c0,0-0.1,0-0.2,0c0.1-0.1,0-0.2,0-0.3c0,0,0,0-0.1,0&#10;&#9;&#9;c0.1,0.4,0.2,0.4,0.3,0.7c-0.1-0.1-0.1-0.1-0.2-0.1c-0.1-0.3-0.1-0.3-0.2-0.7c-0.1,0,0,0.2,0,0.3c-0.2-0.3,0.1-0.7,0.3-0.9&#10;&#9;&#9;c0,0.2,0,0.2,0.2,0.4C17.3,439.7,17.3,439.7,17.3,439.8z M17.4,443v-0.2c0.1,0,0.1,0.2,0.1,0.3C17.5,443,17.5,443,17.4,443z&#10;&#9;&#9; M17.6,444c0.1,0.1,0.3,0.1,0.3,0.2C17.7,444.3,17.6,444.2,17.6,444z M17.9,441.9c0-0.1,0.1-0.1,0-0.1c0.1-0.1,0.2,0.1,0.2,0.2&#10;&#9;&#9;C18,442,17.9,441.9,17.9,441.9z M18.2,441.2c0,0.2,0,0.2,0,0.4c-0.1-0.1-0.1-0.2-0.1-0.4H18.2z M18.3,445.5h-0.2c0,0,0-0.1,0-0.1&#10;&#9;&#9;C18.2,445.4,18.2,445.5,18.3,445.5C18.3,445.5,18.3,445.5,18.3,445.5z M18.2,445.2c0.2,0,0.1,0.1,0.1,0.2&#10;&#9;&#9;C18.3,445.4,18.2,445.4,18.2,445.2z M18.3,440.9c0.1,0,0.1,0.2,0.1,0.3C18.3,441.2,18.4,441,18.3,440.9z M18.6,445.5&#10;&#9;&#9;C18.6,445.5,18.6,445.5,18.6,445.5C18.6,445.5,18.5,445.5,18.6,445.5h-0.1c0-0.1,0-0.1,0-0.3C18.5,445.3,18.6,445.4,18.6,445.5&#10;&#9;&#9;L18.6,445.5z M18.6,445C18.6,445,18.6,445,18.6,445c0-0.1-0.1-0.1-0.1-0.3C18.6,444.8,18.7,444.9,18.6,445z M18.5,444.1&#10;&#9;&#9;c0.1,0,0.2,0.1,0.2,0.2C18.5,444.3,18.5,444.3,18.5,444.1z M18.7,443.8c0.1-0.1-0.1,0-0.1-0.3c0.2,0,0.2,0.2,0.2,0.3&#10;&#9;&#9;C18.8,443.8,18.7,443.8,18.7,443.8z M18.7,442.5c-0.1-0.1,0.2-0.2,0-0.2C18.9,442.1,18.8,442.6,18.7,442.5z M18.8,441.2&#10;&#9;&#9;c0.1-0.1,0-0.1,0-0.3C18.6,440.9,18.8,441.2,18.8,441.2c-0.3-0.1-0.1-0.3-0.1-0.7C18.9,440.6,19.1,441.1,18.8,441.2z M19,445.5&#10;&#9;&#9;c-0.1-0.1-0.1-0.3,0-0.5c0.3,0,0.5-0.2,0.6,0.1c0,0.1-0.1,0.2-0.2,0.3H19z M19.6,445.5c0-0.1,0.1-0.2,0.1-0.3&#10;&#9;&#9;c0.2,0.1,0.4-0.1,0.4,0.1c-0.1,0-0.1-0.1-0.3,0c0,0.1,0.2,0.1,0.3,0.2c0,0,0,0,0,0H19.6z M20.1,445.1c-0.2,0-0.2-0.2,0-0.2&#10;&#9;&#9;C20.1,445.1,20.2,445,20.1,445.1z M20.1,443.4c0.2,0,0.1,0.3,0.3,0.3C20.2,443.8,20,443.6,20.1,443.4z M20.2,444.4c0,0,0.1,0,0.2,0&#10;&#9;&#9;c0,0.1,0,0.1,0,0.1C20.4,444.6,20.1,444.5,20.2,444.4z M20.3,445.5C20.3,445.4,20.3,445.4,20.3,445.5&#10;&#9;&#9;C20.4,445.4,20.3,445.4,20.3,445.5c0-0.2,0.1-0.2,0.2-0.2C20.4,445.3,20.5,445.5,20.3,445.5z M20.4,445.5c0.1,0,0.1-0.1,0.2-0.1&#10;&#9;&#9;c0,0,0,0.1,0,0.1H20.4z M20.8,445.5c0-0.1,0-0.2-0.2-0.2C20.8,445.3,20.9,445.4,20.8,445.5L20.8,445.5z M20.9,444.4&#10;&#9;&#9;c0.2,0,0.2,0.1,0.4,0.1c0,0.3-0.2,0.4-0.3,0.5C21,445,21,444.6,20.9,444.4z M21.4,445.2c0,0,0.1-0.2,0-0.1c0-0.2,0-0.1,0-0.3&#10;&#9;&#9;C21.6,444.8,21.6,445.2,21.4,445.2z M21.7,442c0.1,0.1,0,0.1,0.1,0.3c-0.1,0-0.2,0-0.2,0C21.5,442.1,21.7,442.1,21.7,442z&#10;&#9;&#9; M21.9,442.8c-0.2,0-0.3-0.2-0.3-0.4C21.9,442.6,21.8,442.6,21.9,442.8z M22,444c-0.1,0,0-0.2-0.1-0.1c0-0.1,0-0.2,0-0.3&#10;&#9;&#9;C22.2,443.6,21.9,443.8,22,444z M21.9,445c-0.1,0,0.1,0.1,0,0.2C21.8,445.2,21.7,445,21.9,445c-0.1-0.1-0.1-0.1-0.1-0.1&#10;&#9;&#9;C21.7,444.8,21.8,445,21.9,445C21.9,445,21.9,445,21.9,445C22,445.1,21.9,445.1,21.9,445z M22.1,445.4c0-0.1-0.1,0-0.1,0&#10;&#9;&#9;c0-0.1,0-0.2,0-0.2C22.1,445.2,22.1,445.4,22.1,445.4C22.1,445.5,22.1,445.4,22.1,445.4z M22.1,443.3c-0.1,0-0.1-0.1-0.2-0.1&#10;&#9;&#9;c0-0.1,0.1-0.1,0-0.2C22.1,443,22.1,443.1,22.1,443.3z M22.2,442.7c0,0.1-0.1-0.1-0.1-0.3c0,0,0.1,0.1,0.1,0&#10;&#9;&#9;C22.3,442.5,22.3,442.7,22.2,442.7z M22.4,440.8c0.1,0,0.1,0.3,0,0.3C22.3,440.9,22.4,440.9,22.4,440.8z M22.4,443.8&#10;&#9;&#9;c0.2,0,0.2,0.2,0,0.2V443.8z M22.4,444.5c0-0.2-0.1-0.2,0.1-0.4C22.7,444,22.6,444.5,22.4,444.5z M22.6,443.1&#10;&#9;&#9;c0.1,0,0.1,0.1,0.1,0.2c0,0-0.1,0-0.1,0.1C22.4,443.4,22.5,443.2,22.6,443.1z M22.8,444.3c0-0.2-0.2-0.5,0-0.6&#10;&#9;&#9;C23,443.7,22.8,444.2,22.8,444.3z M22.8,440.8c-0.1,0-0.1-0.1-0.1-0.2c0.1,0,0.1,0,0.1,0C22.9,440.6,22.8,440.7,22.8,440.8z&#10;&#9;&#9; M23,441.3c-0.2,0,0.1-0.4,0.2-0.4c0.1,0.2-0.1,0.4-0.2,0.6c-0.1-0.1,0.1-0.2,0-0.4C23,441.1,23,441.2,23,441.3z M23,441.6&#10;&#9;&#9;C23.1,441.6,23.1,441.5,23,441.6c0.2,0,0.1,0.1,0,0.2c0,0,0.1,0,0.1,0C23.1,441.9,23,441.7,23,441.6z M23.1,442&#10;&#9;&#9;c0.1,0.1,0.1,0.2,0.1,0.3C23,442.3,23,442.1,23.1,442z M23.2,445.5v-0.2c0,0.1,0.1,0.1,0.2,0.1C23.3,445.6,23.3,445.5,23.2,445.5z&#10;&#9;&#9; M23.2,445.3c0-0.1,0.1-0.1,0-0.2c0.1,0,0.1,0.1,0.1,0.1c0,0.1,0,0,0,0C23.3,445.2,23.3,445.2,23.2,445.3c0.1,0,0.2,0,0.2,0&#10;&#9;&#9;C23.4,445.5,23.3,445.3,23.2,445.3z M23.3,443.5c-0.1-0.2,0-0.5,0.1-0.7c0.2,0.1,0.1,0.5,0.1,0.7C23.5,443.3,23.4,443.5,23.3,443.5&#10;&#9;&#9;z M23.5,445.5C23.5,445.5,23.5,445.5,23.5,445.5C23.5,445.5,23.5,445.5,23.5,445.5L23.5,445.5z M23.5,444.9c0.1,0,0.2,0.1,0.2,0.2&#10;&#9;&#9;C23.5,445.1,23.5,445,23.5,444.9z M23.7,442.5c-0.2-0.1-0.1-0.5,0-0.6c0.1,0.1,0.1,0.3,0.1,0.4c-0.1,0-0.1-0.2-0.2-0.2&#10;&#9;&#9;C23.6,442.2,23.9,442.3,23.7,442.5z M23.8,444.2c0-0.2,0-0.4,0-0.5C24,443.8,24.1,444.1,23.8,444.2z M24.1,442.7&#10;&#9;&#9;c-0.1-0.1-0.1-0.3,0.1-0.4C24.2,442.6,24,442.6,24.1,442.7z M24.3,441.5c-0.1,0-0.1,0.1-0.1,0.1c-0.1,0,0-0.3,0-0.4&#10;&#9;&#9;c0.1,0.1,0.3,0.4,0.2,0.7C24.2,441.8,24.3,441.6,24.3,441.5z M24.4,444.7c-0.1-0.2,0-0.2,0-0.4c0.1,0,0.1,0.1,0,0.1&#10;&#9;&#9;c0,0,0.1,0,0.1,0C24.5,444.6,24.5,444.7,24.4,444.7z M24.5,443.8c-0.1-0.1-0.1-0.2-0.1-0.4c0.1-0.1,0.1,0,0.2,0&#10;&#9;&#9;C24.5,443.6,24.4,443.6,24.5,443.8z M24.5,443c0-0.2-0.2-0.1-0.2-0.4c0.2,0,0.1,0.1,0.3,0.1C24.6,442.9,24.5,442.9,24.5,443z&#10;&#9;&#9; M24.6,444.8c0-0.1,0.1-0.3,0.1-0.4C24.7,444.2,24.8,444.7,24.6,444.8z M24.9,441.9c-0.1-0.1-0.1-0.2-0.2-0.3&#10;&#9;&#9;c0-0.2,0.2-0.2,0.1-0.4c0.2,0,0.2,0.2,0.3,0.4c-0.1,0.1-0.2-0.1-0.3-0.1C24.8,441.7,25.1,441.7,24.9,441.9z M25.1,443.7&#10;&#9;&#9;c0.1,0,0.1,0.1,0.1,0.2C25.1,443.9,25,443.8,25.1,443.7z M25.2,445.5C25.2,445.5,25.2,445.5,25.2,445.5c0.1-0.2,0.1-0.1,0.1,0H25.2&#10;&#9;&#9;z M25.3,441.8c-0.1,0,0-0.3,0-0.3c0.1,0.1,0.1,0.1,0.1,0.2C25.3,441.6,25.4,441.7,25.3,441.8z M25.4,441.2c0.2,0.1,0,0.3,0.2,0.4&#10;&#9;&#9;C25.4,441.7,25.3,441.4,25.4,441.2z M25.6,440.3c0.1,0,0.1,0.1,0,0.1c0.1,0,0.1,0.2,0,0.3C25.4,440.7,25.6,440.4,25.6,440.3z&#10;&#9;&#9; M25.7,445.5L25.7,445.5c-0.1-0.1-0.1-0.2,0-0.3C25.7,445.3,25.7,445.4,25.7,445.5z M25.8,445.1c-0.1,0-0.1-0.1-0.1-0.3&#10;&#9;&#9;c0.1,0,0.1,0.1,0.2,0.1C25.8,445,25.8,445,25.8,445.1z M26,442.7c0,0.1,0,0.1-0.1,0.2c-0.2-0.1,0-0.1-0.1-0.3H26V442.7z&#10;&#9;&#9; M26.5,438.7c0.1,0.1,0,0.3-0.1,0.4C26.3,439,26.5,438.8,26.5,438.7z M26.3,438.3c0.1,0,0.1,0.1,0.1,0.3&#10;&#9;&#9;C26.3,438.5,26.2,438.4,26.3,438.3z M26.2,438c0.1,0.1,0.1,0.3,0,0.3C26.1,438.1,26.1,438.1,26.2,438z M26.3,438.9&#10;&#9;&#9;c-0.1,0-0.1-0.1-0.2-0.2c0-0.1,0.1-0.1,0.1-0.2C26.4,438.6,26.4,438.8,26.3,438.9z M26.6,439.8c-0.1,0.1-0.1,0.3-0.1,0.5&#10;&#9;&#9;c-0.2-0.2-0.1-0.8,0-0.9c0.1,0.2,0.1,0.5,0.1,0.8C26.4,440.1,26.7,439.8,26.6,439.8z M26.8,438.7c-0.1,0.1-0.1-0.1,0-0.2&#10;&#9;&#9;C27,438.5,26.7,438.7,26.8,438.7z M27,440.2c0,0.1,0,0.1,0,0.2c-0.1-0.1,0-0.3,0-0.4c0,0,0,0,0,0.1V440.2z M27,437.8&#10;&#9;&#9;c0,0,0-0.1,0-0.2V437.8z M88.4,435.7c0,0,0.1,0,0.2,0c0.1,0,0,0.2,0.1,0.3c-0.1,0,0-0.2-0.2-0.2c0,0.1,0,0.1-0.1,0L88.4,435.7z&#10;&#9;&#9; M88.2,437.1L88.2,437.1C88.2,437,88.3,437,88.2,437.1C88.3,437,88.2,437.1,88.2,437.1z M88.3,436.7L88.3,436.7&#10;&#9;&#9;C88.3,436.6,88.3,436.6,88.3,436.7C88.3,436.7,88.3,436.7,88.3,436.7z M88.7,436.8c-0.1-0.1-0.2-0.2-0.1-0.4&#10;&#9;&#9;c-0.1,0.1-0.2-0.1-0.2-0.2c0,0,0,0,0,0l0-0.1c0.1,0.1,0.1,0.1,0.1,0.2c0.1-0.1,0.2,0,0.3,0.1c-0.1,0.1,0.1,0.1,0.1,0.2&#10;&#9;&#9;C88.8,436.8,88.7,436.8,88.7,436.8z M157.7,374.8h-0.5v-0.7c0-0.5,0.4-0.5,0.5-0.5V374.8z M207.5,397.6&#10;&#9;&#9;C207.5,397.6,207.5,397.6,207.5,397.6C207.4,397.6,207.4,397.6,207.5,397.6C207.4,397.6,207.4,397.6,207.5,397.6z M207,397.7&#10;&#9;&#9;c0.1,0,0.3,0.1,0.4,0.1c-0.1,0.5-0.2,0.9-0.7,1c-0.1-0.4-0.1-0.4,0-0.9c-0.1,0-0.1,0.1-0.1,0.3C206.6,398.1,206.7,397.9,207,397.7z&#10;&#9;&#9; M206.2,396.7h0.2c-0.1,0.1-0.1,0.4-0.1,0.6c0,0,0,0-0.1,0C206.3,397.1,206.2,396.8,206.2,396.7z M206.3,397.5&#10;&#9;&#9;c0.2,0.1,0.4,0.1,0.5,0.2c-0.1,0-0.2,0.2-0.3,0.3c-0.1-0.1,0-0.1,0-0.3c-0.2-0.1-0.1,0.2-0.1,0.4h-0.4&#10;&#9;&#9;C206.2,397.9,206.3,397.7,206.3,397.5z M206.1,397.4c0,0.1,0,0.2-0.1,0.3c-0.1,0.4,0-0.2-0.1-0.3c0,0,0-0.1,0-0.1&#10;&#9;&#9;C205.9,397.4,206,397.4,206.1,397.4z M206,398.1c0.2,0,0.3,0.2,0.5,0.1c-0.1,0.2-0.4,0.7-0.5,0.3c-0.2,0,0.1,0.3-0.2,0.2&#10;&#9;&#9;C205.9,398.5,205.9,398.2,206,398.1z M206.1,400.8c-0.1,0,0-0.3-0.1-0.4C206.3,400.4,206,400.6,206.1,400.8z M206.2,399.6&#10;&#9;&#9;c0.2,0.1,0.1,0.5,0,0.6C206.1,400.1,206,399.7,206.2,399.6z M206.2,398.8c-0.2,0,0,0.3-0.3,0.2v-0.2c0.2,0,0.1,0,0.4-0.1&#10;&#9;&#9;c-0.1,0.1,0.1,0.1,0.1,0.3C206.1,399,206.3,398.9,206.2,398.8z M205.8,404.9c-0.1,0.2-0.3-0.2-0.1-0.4c0.2,0,0.3,0,0.2,0.2&#10;&#9;&#9;c0,0-0.1,0-0.1-0.1C205.8,404.7,205.7,404.9,205.8,404.9z M205.5,401.7c0.1,0.1,0.1,0.2,0.1,0.4c-0.1,0-0.1,0.2-0.2,0.1&#10;&#9;&#9;C205.4,402,205.5,401.8,205.5,401.7z M205.2,399.9c0-0.2-0.1-0.4,0-0.6C205.5,399.3,205.5,399.9,205.2,399.9z M205.6,399.2&#10;&#9;&#9;C205.6,399.1,205.6,399.1,205.6,399.2c0-0.1-0.1-0.1-0.1-0.2c0.2,0,0.1-0.1,0.2-0.1C205.8,398.7,205.8,399.2,205.6,399.2z&#10;&#9;&#9; M205.8,399.8c-0.2-0.1-0.1,0.1-0.2,0.2c-0.2-0.3,0.3-0.3,0.1-0.7C205.9,399.5,205.8,399.6,205.8,399.8z M205.9,401&#10;&#9;&#9;c0,0.2-0.1,0.4-0.2,0.4c0-0.1,0.1-0.1,0.1-0.2c-0.1,0-0.1,0.1-0.2,0.1C205.5,401,205.7,401,205.9,401z M205.6,402.5&#10;&#9;&#9;c0.2,0.1,0,0.3,0.1,0.4c-0.1,0.2-0.1-0.1-0.2-0.1C205.4,402.6,205.6,402.6,205.6,402.5z M205.7,397.3c0.1,0.4,0.1,0.8-0.1,1&#10;&#9;&#9;c-0.1-0.2-0.1-0.8,0-1C205.6,397.3,205.7,397.3,205.7,397.3z M205.6,397.3c-0.2,0.2-0.1,0.8-0.2,1.2c-0.2,0.1-0.8,0.5-0.8,0.6&#10;&#9;&#9;c0-0.1,0.3-0.4,0.2-0.8c0.4-0.2,0.5-0.6,0.6-1C205.5,397.2,205.5,397.2,205.6,397.3z M205,399.8c0.1,0.1,0.1,0.2,0.1,0.4&#10;&#9;&#9;C204.9,400.2,205,400,205,399.8z M205.2,404.7c0.2,0.1,0,0.3-0.1,0.4C204.9,405,205.1,404.8,205.2,404.7z M204.4,399&#10;&#9;&#9;c0-0.4,0.1-0.7,0.4-0.7c0,0.2-0.1,0.4-0.2,0.5C204.4,398.5,204.6,399.1,204.4,399z M205,397.1c0,0.1,0,0.2,0,0.2&#10;&#9;&#9;C204.9,397.2,204.9,397.1,205,397.1C204.9,397,205,397.1,205,397.1z M205.1,397.1c0.1,0,0.2,0.1,0.3,0.1c-0.2,0.4-0.3,1-0.8,1.1&#10;&#9;&#9;C204.8,398,205,397.6,205.1,397.1z M204.5,394.5c0,0.4,0,0.6-0.3,0.7c-0.1-0.4-0.1-0.8,0.4-0.8&#10;&#9;&#9;C204.6,394.6,204.5,394.6,204.5,394.5z M204.1,394.4c-0.2-0.1,0.1-0.4,0.1-0.5C204.3,394,204.1,394.2,204.1,394.4z M204.6,393.7&#10;&#9;&#9;c0,0.3-0.1,0.4-0.3,0.4C204.4,394,204.2,393.7,204.6,393.7z M204.2,393.6c0.2,0.2-0.2,0.2-0.2,0.3&#10;&#9;&#9;C203.9,393.8,204.2,393.7,204.2,393.6z M203.9,394c0.1,0.1,0,0.6-0.2,0.6C203.7,394.3,203.8,394.2,203.9,394z M204.1,394.9&#10;&#9;&#9;c0.1,0.2,0.1,0.6-0.1,0.8c-0.1,0,0-0.1-0.1-0.2c0,0.4-0.2,0.6-0.5,0.8c-0.1,0-0.2-0.1-0.2-0.1c0-0.1,0.1-0.1,0.1-0.1&#10;&#9;&#9;c-0.1-0.1-0.2-0.1-0.1-0.3c-0.1,0.1-0.1,0.2-0.2,0.4c-0.1,0-0.2-0.1-0.3-0.1c0.2-0.3,0.5-0.4,0.6-0.6&#10;&#9;&#9;C203.6,395.2,203.6,394.9,204.1,394.9z M203.6,396.6c0.1,0,0.1,0.1,0.2,0.1c-0.1,0.2-0.4,0.4-0.6,0.4&#10;&#9;&#9;C203.2,396.9,203.4,396.7,203.6,396.6z M203.1,396.7c-0.2-0.1,0-0.2,0.2-0.3c0,0,0.1,0,0.1,0C203.3,396.6,203.2,396.6,203.1,396.7z&#10;&#9;&#9; M203.8,396.4c0.1-0.1,0.1-0.2,0.2-0.3c0,0.1,0,0.2,0,0.3C203.9,396.4,203.8,396.4,203.8,396.4z M199.8,395.8&#10;&#9;&#9;c0.3,0,0.1,0.3,0.1,0.5C199.8,396.1,199.9,396.1,199.8,395.8z M199.9,395.4c-0.1,0-0.1,0.2-0.1,0.3c-0.3-0.1,0.1-0.3,0.1-0.5&#10;&#9;&#9;c0.2,0.1,0,0.3,0.1,0.6C199.8,395.7,200.1,395.5,199.9,395.4z M199.7,396.5c-0.1-0.1-0.2-0.4,0-0.5&#10;&#9;&#9;C199.9,396.1,199.6,396.3,199.7,396.5z M199.4,396.2c0.2,0,0.2,0.4,0.1,0.5C199.3,396.8,199.4,396.4,199.4,396.2z M200.8,393.8&#10;&#9;&#9;c-0.1,0.6-0.5,0.9-0.2,0.3C200.6,394,200.6,393.9,200.8,393.8z M200.6,392.6c0.3,0.2,0.3,0.9,0,1.1&#10;&#9;&#9;C200.6,393.3,200.6,392.9,200.6,392.6z M200.5,395.8C200.5,395.8,200.5,395.8,200.5,395.8c0-0.1-0.1-0.1-0.1-0.1&#10;&#9;&#9;c0.1-0.1,0.2-0.1,0.2-0.3C200.8,395.6,200.5,395.7,200.5,395.8z M200.4,396.8c-0.2-0.1,0.1-0.3,0.1-0.4&#10;&#9;&#9;C200.7,396.5,200.4,396.8,200.4,396.8z M200.8,396.8c0.1,0,0.1,0.1,0.1,0.2c-0.1,0-0.2,0-0.2,0.1&#10;&#9;&#9;C200.5,397,200.8,396.9,200.8,396.8z M200.4,394c0.2,0.1-0.1,0.3-0.1,0.5C200.2,394.3,200.4,394.2,200.4,394z M200.5,392.6&#10;&#9;&#9;c0.1,0.1,0,0.4-0.1,0.5C200.3,393.3,200.4,392.7,200.5,392.6z M200.1,395.8v-0.5C200.3,395.3,200.4,395.8,200.1,395.8z&#10;&#9;&#9; M200.1,392.8c-0.4,0-0.1-0.5-0.4-0.5c0-0.3,0-0.5,0.1-0.6C200.3,391.7,200.2,392.4,200.1,392.8z M199.8,392.6v0.8&#10;&#9;&#9;C199.7,393.3,199.6,392.6,199.8,392.6z M199.7,394.7C199.7,394.7,199.7,394.7,199.7,394.7C199.6,394.7,199.6,394.7,199.7,394.7&#10;&#9;&#9;C199.7,394.7,199.7,394.7,199.7,394.7z M199.8,394.2c0.2,0.1,0.1,0.3,0.1,0.4C199.8,394.5,199.8,394.2,199.8,394.2z M199.6,391.8&#10;&#9;&#9;c-0.1-0.1-0.1-0.4,0-0.7C199.9,391.5,199.7,391.4,199.6,391.8z M199.6,393.5c0.2,0.1,0,0.4,0,0.5&#10;&#9;&#9;C199.4,393.9,199.7,393.7,199.6,393.5z M199.7,395c-0.1,0-0.1,0.1-0.2,0.1c0-0.1,0-0.1,0-0.1C199.6,394.9,199.6,394.9,199.7,395z&#10;&#9;&#9; M199.6,395.7c0.3,0.1,0,0.2-0.1,0.4C199.4,395.9,199.7,395.8,199.6,395.7z M200,393.7c-0.1,0-0.1-0.4,0.1-0.3&#10;&#9;&#9;C200.2,393.6,200,393.5,200,393.7z M200.2,397c0.2,0.1,0.1,0.3-0.1,0.4C200,397.3,200.2,397.1,200.2,397z M200.2,398.5&#10;&#9;&#9;c0.2-0.2,0,0.4-0.2,0.3C200.1,398.7,200.4,398.6,200.2,398.5z M200.3,398.1c0-0.1,0.4-0.4,0.6-0.2&#10;&#9;&#9;C200.8,398.1,200.4,398.1,200.3,398.1z M200.8,397.7c0-0.1,0.4-0.1,0.3,0.1C200.9,397.8,200.9,397.7,200.8,397.7z M201,396.8&#10;&#9;&#9;c-0.3-0.2,0.2-0.5,0.1-0.6c0-0.1,0.1,0,0.2-0.1C201.2,396.4,201.1,396.6,201,396.8z M201.5,391.9c-0.1-0.2-0.1-0.5-0.1-0.6&#10;&#9;&#9;C201.6,391.4,201.6,391.7,201.5,391.9z M201.6,391.9c0.1,0.1,0,0.2,0,0.4C201.5,392.2,201.5,392,201.6,391.9z M201.6,393.8&#10;&#9;&#9;c0.3,0.1,0,0.6-0.3,0.6C201.4,394.1,201.6,394.1,201.6,393.8z M202.6,392.6c-0.2-0.1-0.1-0.3,0-0.5&#10;&#9;&#9;C202.8,392.2,202.6,392.4,202.6,392.6z M202.8,393.3v0.2C202.6,393.6,202.6,393.3,202.8,393.3z M202.5,393&#10;&#9;&#9;c-0.3-0.1-0.1-0.2-0.1-0.4C202.6,392.7,202.6,392.8,202.5,393z M202.5,393.5c0.1,0,0.1,0.1,0.2,0.1c-0.2,0.4-0.1,0.6-0.6,0.8&#10;&#9;&#9;C202.3,394.1,202.4,393.9,202.5,393.5z M202.7,395.2c0-0.1,0-0.4-0.1-0.7C202.9,394.5,202.7,395,202.7,395.2z M201.9,397.2&#10;&#9;&#9;c0-0.4,0.4-0.3,0.5-0.2C202.3,397.1,202.1,397.2,201.9,397.2z M202,397.7c-0.1-0.2,0.1-0.2,0.2-0.3&#10;&#9;&#9;C202.3,397.4,202.1,397.7,202,397.7z M201.9,396c0.2,0,0.2,0.1,0.3,0.2c0,0.2-0.2,0.2-0.3,0.4C201.8,396.4,202,396.2,201.9,396z&#10;&#9;&#9; M202.1,396.8c0.1-0.1,0.1-0.2,0.3-0.2C202.5,396.8,202.3,396.9,202.1,396.8z M202,395.5c0.1,0,0.3,0,0.5-0.1&#10;&#9;&#9;c-0.1,0.1,0,0.3-0.1,0.4C202.3,395.7,202,395.8,202,395.5z M202.2,395.3C202.3,395.2,202.2,395,202.2,395.3&#10;&#9;&#9;c-0.1-0.1-0.2-0.3-0.2-0.1c-0.2-0.4,0.3-0.5,0.5-0.6c-0.1,0.2-0.1,0.4-0.1,0.6C202.4,395.2,202.4,395.3,202.2,395.3z M202.2,393.1&#10;&#9;&#9;c-0.1-0.1-0.1-0.3-0.1-0.5C202.2,392.7,202.3,393,202.2,393.1z M202.1,393.4c-0.1,0.1-0.2,0.3-0.2,0.5&#10;&#9;&#9;C201.6,393.7,201.9,393.4,202.1,393.4z M201.6,396.9c-0.3-0.2,0-0.6,0.1-0.9C202,396.2,201.7,396.7,201.6,396.9z M201.2,394.4&#10;&#9;&#9;c-0.1-0.2,0.1-0.5,0.1-0.7C201.4,393.8,201.3,394.3,201.2,394.4z M201.1,392.2v-0.5C201.2,391.7,201.5,392.2,201.1,392.2z&#10;&#9;&#9; M201.5,395c0,0.2-0.2,0.3-0.4,0.4C201.1,395.1,201.3,394.7,201.5,395z M201.2,395.6C201.2,395.6,201.2,395.6,201.2,395.6&#10;&#9;&#9;c0.1,0.1,0,0.1,0,0.2c0,0-0.1-0.1-0.2-0.1C201,395.7,201.1,395.6,201.2,395.6z M201.3,396.6c0.2,0.2-0.2,0.3,0,0.5&#10;&#9;&#9;c0,0.1-0.2,0-0.2,0.1C201,397,201.3,396.8,201.3,396.6z M201.6,397.4c0.1,0.3-0.2,0.2-0.4,0.2C201.3,397.4,201.5,397.5,201.6,397.4&#10;&#9;&#9;z M201.8,398c0,0.2,0,0.3-0.2,0.2C201.6,398,201.6,397.9,201.8,398z M201.7,398.4c0.2,0,0.1,0.2,0.2,0.2c0,0.2-0.1,0.3-0.3,0.4&#10;&#9;&#9;C201.7,398.8,201.7,398.6,201.7,398.4z M201.9,398h0.5c-0.1,0.2-0.3,0.3-0.4,0.6C201.9,398.4,201.8,398.2,201.9,398z M202.5,398&#10;&#9;&#9;c0.1,0,0.1,0.1,0.1,0.3c-0.2,0-0.2,0.2-0.4,0.2C202.4,398.3,202.4,398.2,202.5,398z M202.4,397.6c-0.1,0,0-0.2,0.1-0.3h0.2&#10;&#9;&#9;C202.6,397.5,202.4,397.5,202.4,397.6z M202.6,395.8c0-0.2,0.1-0.2,0.1-0.4C202.8,395.5,202.8,395.9,202.6,395.8z M202.8,397.6&#10;&#9;&#9;c0.1,0,0.1,0.1,0.2,0.1c0,0.3-0.1,0.3-0.2,0.5C202.6,398,202.6,397.7,202.8,397.6z M202.7,396.3&#10;&#9;&#9;C202.7,396.3,202.7,396.3,202.7,396.3c0.1-0.1,0.1,0,0.2,0C202.8,396.3,202.8,396.3,202.7,396.3z M203.1,394&#10;&#9;&#9;c0.2,0.2-0.1,0.8-0.2,1.1c0,0.1,0-0.5-0.1-0.6C202.8,394.2,203.1,394.3,203.1,394z M203.1,393.6c0.1,0,0.2,0.1,0.3,0.1&#10;&#9;&#9;c0,0.1-0.1,0.1-0.1,0.2C203.2,393.9,203.1,393.7,203.1,393.6z M203.2,395.1c-0.2-0.3,0.1-0.5,0.1-0.9&#10;&#9;&#9;C203.6,394.4,203.2,394.9,203.2,395.1z M203.1,392.9c0.1-0.1,0.2-0.1,0.4-0.1c0,0.3-0.1,0.4-0.3,0.5&#10;&#9;&#9;C203,393.2,203.1,393.1,203.1,392.9z M202.9,394.2c-0.1,0-0.1-0.2,0-0.2c0-0.1-0.1,0-0.1-0.1c0-0.2,0.2-0.1,0.1-0.3&#10;&#9;&#9;C203.2,393.7,203,394.1,202.9,394.2z M202.7,392.7c0.2-0.4,0-0.9,0.3-1.2C203.1,391.7,203,392.5,202.7,392.7z M202.6,390.7&#10;&#9;&#9;c0.2-0.1-0.1,0.3-0.2,0.3C202.2,390.9,202.5,390.8,202.6,390.7z M202.8,390.7c0.1,0.1,0.4,0.6,0.2,0.8c-0.2-0.2,0.1-0.3-0.1-0.5&#10;&#9;&#9;c-0.1,0.4-0.2,0.1-0.1-0.1c-0.2,0.2,0,1.5-0.4,1.2c-0.1,0.2,0.1,0.3-0.1,0.5c-0.2,0,0.1-0.2-0.2-0.2c0-0.1,0.1-0.1,0.1-0.3&#10;&#9;&#9;c-0.2,0.2-0.3,0.1-0.4,0.3C201.9,392.2,202.3,391,202.8,390.7z M202.1,390.7c-0.2,0-0.1-0.4-0.2-0.5&#10;&#9;&#9;C202,390.1,202.3,390.6,202.1,390.7z M201.8,391.2c0-0.3,0-0.3,0.1-0.6C202,390.6,202,391.2,201.8,391.2z M201.7,390.8&#10;&#9;&#9;c-0.2-0.3-0.2,0.2-0.4,0.2c0-0.3,0.2-0.4,0.2-0.8c0.1,0,0.1,0.1,0.2,0.1C201.8,390.6,201.7,390.6,201.7,390.8z M201.6,389.4&#10;&#9;&#9;c0,0.1,0.1,0.4,0,0.6C201.5,389.9,201.5,389.5,201.6,389.4z M201.4,389.8c0.3,0.2,0.1,0.4,0,0.7&#10;&#9;&#9;C201.2,390.3,201.4,390.1,201.4,389.8z M201.3,391.7c-0.1,0-0.2-0.2-0.1-0.3C201.4,391.3,201.3,391.5,201.3,391.7z M201.2,390.2&#10;&#9;&#9;c0.2,0.2,0.1,0.6-0.2,0.6C201.1,390.6,201,390.4,201.2,390.2z M200.9,391.8c0.2,0.1,0,0.5,0.1,0.5&#10;&#9;&#9;C200.8,392.5,200.9,392,200.9,391.8z M200.9,393.7c0.2,0.1,0,0.4-0.1,0.5C200.8,394.1,200.9,393.8,200.9,393.7z M200.9,392.7&#10;&#9;&#9;C200.9,392.8,200.8,392.7,200.9,392.7c-0.1-0.1-0.2-0.1-0.2-0.1c-0.1-0.2-0.1-0.5,0.2-0.5C200.7,392.2,200.8,392.4,200.9,392.7z&#10;&#9;&#9; M200.8,391.5c0,0.1,0.1,0.3,0.1,0.5c-0.3,0-0.3,0.1-0.4,0.5C200.4,392,200.5,391.7,200.8,391.5z M200.5,390.7&#10;&#9;&#9;c0.1,0,0.1,0.1,0.2,0.1c0,0.1-0.1,0.2-0.1,0.4C200.3,391,200.5,390.9,200.5,390.7z M200.3,391.2c-0.1-0.2-0.1-0.7-0.1-0.8&#10;&#9;&#9;C200.5,390.4,200.4,390.9,200.3,391.2z M200.2,391.7c-0.4-0.3-0.1-0.4-0.2-0.8c-0.1,0-0.1,0.1-0.1,0.2c-0.2-0.2-0.2-0.5,0.1-0.6&#10;&#9;&#9;C200,390.9,200.2,391.4,200.2,391.7z M199.8,390.5c-0.2-0.1,0.1-0.2,0.1-0.4C200.1,390.3,199.9,390.4,199.8,390.5z M199.8,390.2&#10;&#9;&#9;c0-0.1-0.1-0.4,0.1-0.5C200,389.8,199.9,390.1,199.8,390.2z M199.7,389c0.2,0,0.3,0.7,0,0.6V389z M199.6,390.5&#10;&#9;&#9;c-0.1,0-0.1-0.4-0.1-0.7C199.8,389.9,199.7,390.3,199.6,390.5z M199.5,389.1c0.1-0.2,0,0.5,0.1,0.5&#10;&#9;&#9;C199.4,389.8,199.6,389.3,199.5,389.1z M199.5,392.8c-0.1,0.1,0,0.3-0.1,0.5c-0.2-0.1-0.2-0.2-0.4-0.3&#10;&#9;&#9;C199.2,393,199.3,392.9,199.5,392.8z M199.4,392.5c0.3,0.1-0.1,0.2-0.1,0.4C199,392.8,199.4,392.7,199.4,392.5z M199.4,389&#10;&#9;&#9;c0.1,0,0.1,0.5-0.1,0.5C199.3,389.2,199.4,389.2,199.4,389z M199.3,391.4c0.2,0.3,0.1,0.7,0.2,1c-0.2-0.3-0.3,0.4-0.5,0.5&#10;&#9;&#9;c-0.1-0.1-0.2-0.2-0.2-0.3C199,392.3,199,391.6,199.3,391.4z M198.9,391.5c-0.2-0.1,0-0.4,0-0.5&#10;&#9;&#9;C199.1,391.2,198.8,391.3,198.9,391.5z M199.1,389.2c0.2,0.1,0.1,0.3,0.1,0.5C199,389.6,199.1,389.3,199.1,389.2z M198.9,390.1&#10;&#9;&#9;c0.1,0,0-0.1,0.1-0.1c0.1,0.1,0,0.2,0.1,0.4c-0.2-0.1-0.1-0.2-0.2-0.4C198.9,390,198.9,390,198.9,390.1z M198.6,387.4&#10;&#9;&#9;c0,0.2,0.1,0.5,0.1,0.6c-0.1,0,0-0.1-0.1-0.2c-0.2,0.1,0,0.4,0.2,0.5c0,0.3-0.1,0.7,0.1,0.9c0,0.2-0.1,0.3-0.1,0.1&#10;&#9;&#9;c-0.1-0.2-0.1-0.5-0.2-0.6c0-0.1,0.1-0.1,0.1-0.3c0-0.1-0.1-0.1-0.1-0.2c0,0,0,0,0,0V387.4z M198.6,389.3c0.2,0.2,0.1,0.5,0.2,0.8&#10;&#9;&#9;c-0.2-0.1-0.1-0.2-0.1,0.1c0,0,0,0-0.1-0.1V389.3z M198.6,390.4C198.6,390.5,198.6,390.5,198.6,390.4c0.1,0.2,0.1,0.4,0,0.5V390.4z&#10;&#9;&#9; M198.6,391.4c0,0.1,0,0.3,0,0.4V391.4z M198.6,392.9c0-0.1,0.1-0.1,0.1-0.2c0.1,0.1,0.2,0.1,0.2,0.3c-0.1,0-0.1,0.1-0.2,0.1V392.9&#10;&#9;&#9;z M198.6,393.2c0.1-0.1,0.2-0.1,0.4-0.1c0.1,0.1,0.1,0.2,0,0.3c0.2-0.2,0.3,0,0.5,0.1c0.1,0.5-0.1,0.7-0.2,1&#10;&#9;&#9;c-0.2-0.1,0-0.5-0.2-0.6c0,0.2,0,0.4-0.1,0.6c0,0-0.1,0-0.1-0.1c0-0.3,0.1-0.7,0.2-0.9c-0.3,0.1-0.1,0.6-0.5,0.6V393.2z&#10;&#9;&#9; M199.2,395.4c0.1,0,0.1,0.4,0.1,0.5C199.2,395.8,199.3,395.5,199.2,395.4z M199.2,395c-0.1-0.1-0.1-0.2,0-0.3c0,0,0.1,0,0.1,0.1&#10;&#9;&#9;C199.3,394.9,199.2,394.9,199.2,395z M199.3,394.6C199.3,394.6,199.3,394.6,199.3,394.6C199.4,394.6,199.4,394.6,199.3,394.6&#10;&#9;&#9;C199.4,394.6,199.3,394.6,199.3,394.6z M199,394.6c0,0.1,0,0.1-0.1,0.2C198.9,394.8,198.9,394.7,199,394.6&#10;&#9;&#9;C198.9,394.6,198.9,394.6,199,394.6z M198.6,395.6C198.6,395.6,198.6,395.6,198.6,395.6c0.1,0,0.1,0.3,0,0.3V395.6z M198.6,396.4&#10;&#9;&#9;c0,0,0.1,0,0.1,0c0,0.1-0.1,0.2-0.1,0.3V396.4z M198.6,397.8L198.6,397.8L198.6,397.8C198.6,397.8,198.6,397.8,198.6,397.8z&#10;&#9;&#9; M198.6,399.8C198.6,399.8,198.6,399.8,198.6,399.8C198.7,399.8,198.7,399.8,198.6,399.8L198.6,399.8z M198.7,397.5&#10;&#9;&#9;c-0.3,0,0.1-0.3-0.1-0.2c-0.1-0.1,0.2-0.3,0.2-0.5c-0.2,0-0.2,0.1-0.2,0.3c0,0,0,0-0.1-0.1v-0.2c0.1-0.1,0.2-0.2,0.3-0.2&#10;&#9;&#9;C199,396.9,198.7,397.2,198.7,397.5z M198.9,396.2c-0.2-0.1,0.1-0.3,0-0.5c0.1,0.1,0.3,0.2,0.2,0.4&#10;&#9;&#9;C199.1,396.2,199,396.2,198.9,396.2z M199,398c0.1-0.2,0.2-0.4,0.5-0.4c0,0.2-0.1,0.2-0.1,0.4c-0.1,0-0.1,0.1-0.2,0.1&#10;&#9;&#9;C199.2,397.8,199.1,398,199,398z M199.4,400.3h-0.2c0-0.2,0.3-0.3,0.1-0.4c-0.1,0.1,0,0.1-0.1,0.2c-0.1,0,0-0.2-0.1-0.4&#10;&#9;&#9;c0.3,0,0.1-0.4,0.4-0.4C199.8,399.9,199.6,400.2,199.4,400.3z M199.9,398.8c-0.1,0-0.2-0.2-0.3,0c-0.2-0.1,0-0.4,0.1-0.4&#10;&#9;&#9;c0.2,0,0.3,0.1,0.5,0.1C200.1,398.6,200,398.8,199.9,398.8C199.8,399,199.8,398.8,199.9,398.8z M200.2,400&#10;&#9;&#9;c-0.1-0.1-0.2-0.2-0.2-0.4C200.2,399.7,200.3,399.9,200.2,400z M200.3,399.1c0.2,0.1,0.1,0.5,0.2,0.7&#10;&#9;&#9;C200.3,399.9,200.4,399.3,200.3,399.1z M200.5,399c0.2-0.3,0.5-0.6,0.6-1c-0.1,0.5-0.2,1.3-0.5,1.6&#10;&#9;&#9;C200.5,399.5,200.6,399,200.5,399z M200.6,400c0-0.2,0.1-0.3,0.3-0.3C200.8,399.8,200.8,400,200.6,400z M201.2,399.7&#10;&#9;&#9;c-0.2,0-0.2-0.2-0.1-0.4C201.3,399.4,201.3,399.7,201.2,399.7z M201.1,399.1c-0.3-0.3,0.1-0.7,0.1-1.1c0.1,0,0.1,0,0.1,0.1&#10;&#9;&#9;C201.5,398.5,201.2,398.9,201.1,399.1z M201.5,399.9c0-0.2,0.1-0.2,0.1-0.4c0.1,0,0.1,0.1,0.1,0.1&#10;&#9;&#9;C201.7,399.8,201.6,399.9,201.5,399.9z M201.9,399.3c-0.1,0-0.1,0-0.1,0.1c-0.2-0.1-0.1-0.3,0.1-0.4&#10;&#9;&#9;C202,399,201.9,399.2,201.9,399.3z M202.1,399.3c-0.2,0-0.1-0.3-0.1-0.4C202.1,398.9,202,399.1,202.1,399.3z M202.1,398.6&#10;&#9;&#9;c0.3,0,0.4-0.2,0.6-0.2c-0.2,0.3-0.3,0.7-0.5,0.9C202.1,399.2,202.2,398.8,202.1,398.6z M202.6,398.9c0.1,0.1,0.2,0.2,0.2,0.4&#10;&#9;&#9;c-0.1,0-0.1,0.2-0.2,0.1C202.5,399.2,202.6,399.1,202.6,398.9z M202.8,400c-0.1,0,0-0.2-0.1-0.3h0.2&#10;&#9;&#9;C202.9,399.9,202.8,399.9,202.8,400z M202.7,398.7c0.2,0,0.1,0.3,0.2,0.4C202.8,399,202.7,398.9,202.7,398.7z M203.1,398.2&#10;&#9;&#9;c0.1,0.1,0,0.5,0.1,0.6C202.7,398.9,202.8,398.3,203.1,398.2z M202.8,397.5c0.1-0.1,0.1-0.4,0.4-0.3&#10;&#9;&#9;C203.2,397.4,203.1,397.6,202.8,397.5z M203.4,398.7c0.1-0.1,0.1-0.2,0.2-0.2c-0.1-0.1-0.3,0-0.2-0.3c-0.1,0.1,0,0.4-0.1,0.6&#10;&#9;&#9;c-0.2-0.4-0.1-1,0-1.6c0.2-0.1,0.5-0.2,0.6-0.5c0.3,0.1,0.6,0.2,0.9,0.3c0,0.4,0,0.7-0.3,1.1c-0.3,0-0.3-0.4-0.4-0.5&#10;&#9;&#9;c0,0.2,0.2,1-0.1,1.2c-0.1,0-0.1-0.2-0.1-0.4c-0.1,0,0,0.1-0.1,0.2c-0.1,0,0-0.4,0-0.6C203.6,398.2,203.7,398.7,203.4,398.7z&#10;&#9;&#9; M204.2,403.8c-0.2-0.1,0-0.2,0-0.4C204.4,403.5,204.3,403.8,204.2,403.8z M204.2,401.3V401c0.2,0,0.2,0.1,0.3,0.1&#10;&#9;&#9;C204.5,401.2,204.4,401.3,204.2,401.3z M204,402.1c-0.1-0.1,0.1-0.5,0.2-0.5C204.2,401.9,204,401.9,204,402.1z M203.9,402.8&#10;&#9;&#9;c-0.1-0.1,0-0.5,0.1-0.6C204.2,402.4,204.1,402.7,203.9,402.8z M204.1,404h-0.2c0-0.1,0-0.2,0.1-0.2&#10;&#9;&#9;C204.2,403.7,204.1,403.9,204.1,404z M203.9,406.1c-0.2,0.2-0.1-0.1-0.1-0.2c-0.1,0.2-0.1,0.1-0.2,0v-0.2c0.1,0,0.1,0.3,0.3,0.2&#10;&#9;&#9;C204,405.9,203.8,406.1,203.9,406.1z M203.9,401.9c-0.2,0-0.1-0.3-0.1-0.4C204,401.6,203.9,401.8,203.9,401.9z M203.9,404.1&#10;&#9;&#9;c0,0.2-0.1,0.2-0.2,0.4v-0.3C203.8,404.1,203.8,404.1,203.9,404.1z M203.9,404.8c0,0.2-0.1,0.2-0.2,0.2v-0.1&#10;&#9;&#9;C203.8,404.8,203.8,404.8,203.9,404.8z M203.7,401v-0.2c0-0.1,0.1-0.2,0.1-0.4c0.2,0,0.2,0.2,0.2,0.4&#10;&#9;&#9;C203.8,400.8,203.8,400.9,203.7,401z M203.7,400.3c0.1,0.1,0.1,0.2,0,0.3L203.7,400.3L203.7,400.3&#10;&#9;&#9;C203.7,400.3,203.7,400.3,203.7,400.3z M203.8,407.2L203.8,407.2L203.8,407.2C203.8,407.2,203.8,407.1,203.8,407.2&#10;&#9;&#9;C203.9,407.2,203.8,407.2,203.8,407.2z M203.9,407.2C203.9,407.2,203.9,407.2,203.9,407.2c0.1-0.1,0.1,0,0.1,0H203.9z M204.1,406.1&#10;&#9;&#9;c-0.1,0,0-0.4,0-0.6c0.1,0.1,0.2,0.1,0.2,0.2C204.3,405.9,204.1,405.9,204.1,406.1z M204.4,405c-0.2,0,0,0-0.1-0.2&#10;&#9;&#9;c-0.2,0-0.1,0.2-0.2,0.2C204.2,405.3,204.2,405,204.4,405c-0.1,0.3-0.2,0.1-0.4,0.1c-0.1-0.2,0.1-0.2,0.1-0.4&#10;&#9;&#9;c0.2,0,0.2,0.1,0.3,0.1V405z M204.5,406.7c-0.1-0.1-0.2-0.4-0.1-0.5C204.7,406.3,204.5,406.4,204.5,406.7z M204.4,400.5&#10;&#9;&#9;c0-0.2,0.1-0.2,0.1-0.4c-0.1,0.1-0.2,0.2-0.3,0.3c-0.1,0,0-0.2-0.1-0.3c-0.1,0-0.1,0.1-0.1,0.2c-0.3-0.1,0-0.2,0.1-0.4&#10;&#9;&#9;c0.1-0.1-0.1,0.1,0.1,0.2c0.1-0.1,0.2-0.2,0.4-0.2C204.6,400.1,204.7,400.6,204.4,400.5z M204.5,399.5c-0.1,0,0,0.2,0.1,0.2&#10;&#9;&#9;c0,0.1-0.1,0.1-0.3,0.1c0-0.2,0.1-0.3,0.2-0.5h0.3c0,0.1-0.1,0.2-0.1,0.4C204.6,399.7,204.6,399.6,204.5,399.5z M204.8,400.7&#10;&#9;&#9;c0,0,0.1,0.1,0.2,0.1c0,0.1-0.1,0.2-0.1,0.4C204.7,401,204.8,400.9,204.8,400.7z M204.9,406.8c-0.1-0.1,0.1-0.4,0.2-0.4&#10;&#9;&#9;C205.1,406.6,205,406.7,204.9,406.8z M205,405.5c0-0.1,0.1-0.1,0.1-0.3h0.1c0,0,0,0.1,0.1,0.1C205.2,405.4,205.2,405.5,205,405.5z&#10;&#9;&#9; M205.3,404.1c-0.4,0.2,0.1-0.5,0.2-0.1C205.4,404,205.1,404,205.3,404.1z M205.5,403.3c0.2,0,0.2,0.1,0.2,0.2&#10;&#9;&#9;c-0.1,0-0.2,0-0.2,0.1C205.3,403.6,205.5,403.5,205.5,403.3z M205.9,406.6c-0.1,0.1-0.1,0.1-0.3,0.1c0.1-0.3,0-0.2-0.1-0.4&#10;&#9;&#9;c0.1-0.1,0.2,0.1,0.4,0.1C205.9,406.5,205.8,406.6,205.9,406.6z M206,406.3c-0.1,0,0,0.1-0.1,0.1c0,0-0.1-0.1-0.2-0.1&#10;&#9;&#9;c0-0.2,0.1-0.2,0.2-0.2c0,0.1,0.1,0.1,0.1,0.2C206,406.4,206,406.3,206,406.3z M206.3,400.8c0.2,0.2,0,0.6-0.2,0.7&#10;&#9;&#9;C205.8,401.2,206.3,401.1,206.3,400.8z M206.2,403c0-0.2,0.1-0.3,0.1-0.5C206.5,402.5,206.3,402.9,206.2,403z M206.4,398.5&#10;&#9;&#9;c0.1-0.2,0.2,0.3,0.1,0.3C206.3,398.8,206.6,398.5,206.4,398.5z M206.6,400c-0.1,0-0.1-0.1-0.1,0c-0.1,0,0-0.2-0.1-0.4h0.2&#10;&#9;&#9;C206.8,399.8,206.6,399.8,206.6,400z M207,404.9c-0.2,0.1-0.2,0.2-0.5,0.2c0-0.3,0.4-0.3,0.4-0.6C207,404.3,207,404.8,207,404.9z&#10;&#9;&#9; M206.6,402c0.2,0,0.1,0.4-0.1,0.4C206.5,402.1,206.6,402.1,206.6,402z M206.6,404.4c0.2,0,0.2-0.3,0.3-0.4&#10;&#9;&#9;c0.1,0.2-0.1,0.5-0.3,0.6C206.7,404.5,206.6,404.6,206.6,404.4z M206.7,401.5c0,0,0.1-0.1,0.1-0.2c0,0,0.1,0,0.1,0.1&#10;&#9;&#9;c0,0.1,0.1,0,0.2,0C206.8,401.8,206.9,401.9,206.7,401.5z M206.8,401c-0.1,0,0-0.5-0.1-0.2c-0.3-0.3,0.1-0.6,0.4-0.6&#10;&#9;&#9;C206.8,400.4,207,400.6,206.8,401z M206.5,404.5c0.2,0,0.1,0.4-0.1,0.4C206.4,404.7,206.5,404.7,206.5,404.5z M206.5,407.1&#10;&#9;&#9;c-0.2-0.1,0-0.3,0.2-0.2C206.7,407,206.5,407,206.5,407.1z M206.9,406.7h-0.2c0-0.2,0.2-0.2,0.2-0.3&#10;&#9;&#9;C207,406.4,206.9,406.6,206.9,406.7z M207,405.8c-0.2-0.3-0.2,0.2-0.4,0.4c-0.1-0.1,0.2-0.3,0.1-0.6c-0.2-0.1-0.1,0.4-0.4,0.2&#10;&#9;&#9;c0.1,0,0.1-0.1,0.2-0.2c0-0.1-0.2-0.1-0.1-0.2c0.2,0.1,0.2,0.1,0.5,0.1C207.1,405.5,207.1,405.8,207,405.8z M207.1,402.4&#10;&#9;&#9;c0.2,0,0.1-0.3,0.3-0.2c0.1,0.2-0.3,0.4,0,0.4c0,0.2-0.2,0.2-0.2,0.3c-0.2-0.1,0.1-0.2,0.1-0.2&#10;&#9;&#9;C207.1,402.5,207.2,402.7,207.1,402.4z M207.9,401.6c-0.1-0.2,0.3-0.1,0.2,0.2c-0.2-0.1,0,0.3-0.2,0.2&#10;&#9;&#9;C207.8,401.8,208,401.5,207.9,401.6z M208.8,402.1c0.2,0.3-0.4,0.2-0.5,0.4C208.2,402.3,208.7,402.2,208.8,402.1z M208.4,402.1&#10;&#9;&#9;c0-0.2,0.2-0.3,0.3-0.4C208.8,401.8,208.7,402.1,208.4,402.1z M208.9,402.7c-0.5,0.3-0.5,0.1-0.1-0.2&#10;&#9;&#9;C209,402.6,208.8,402.7,208.9,402.7z M209.9,403c-0.2,0-0.2-0.1-0.4-0.1c0-0.2,0.2-0.2,0.1-0.4h0.4&#10;&#9;&#9;C210.1,402.8,210,402.9,209.9,403z M209.7,403.5c0-0.2,0.2-0.1,0.2-0.3C210.1,403.3,209.9,403.5,209.7,403.5z M209.9,401.7&#10;&#9;&#9;c0.2,0.1-0.1,0.3-0.1,0.4C209.7,402,209.9,401.8,209.9,401.7z M209.7,401.7c-0.1-0.3,0.1-0.6,0.2-0.8&#10;&#9;&#9;C210,401.1,209.9,401.5,209.7,401.7z M209.5,402.5c-0.2-0.2,0-0.4,0.1-0.5C209.8,402.1,209.6,402.4,209.5,402.5z M209.4,402.1&#10;&#9;&#9;c-0.1-0.1,0-0.4,0.2-0.3C209.6,402,209.4,401.9,209.4,402.1z M209.4,403c0.2,0,0.3,0.1,0.5,0.1c-0.1,0.2-0.3,0.3-0.6,0.4&#10;&#9;&#9;C209.3,403.4,209.3,403.1,209.4,403z M209.5,404c0-0.1-0.1,0-0.2-0.1c0-0.1,0.2-0.1,0.4-0.2c-0.1,0.4-0.1,0.9-0.5,1&#10;&#9;&#9;C209.1,404.4,209.2,404.2,209.5,404z M209.1,404.3c-0.1-0.1-0.1-0.2-0.1-0.4c0-0.1,0.1,0,0.1,0.1c0.1,0,0.1-0.1,0.1-0.1&#10;&#9;&#9;C209.3,404,209.1,404.2,209.1,404.3z M209.5,403.7c0-0.1,0-0.2,0.1-0.2C209.8,403.5,209.7,403.8,209.5,403.7z M209.3,403.6&#10;&#9;&#9;c0,0.2-0.1,0.3-0.3,0.2C209,403.7,209.2,403.6,209.3,403.6z M209,402.7c0-0.3,0-0.6,0.2-0.7C209.3,402.2,209.2,402.7,209,402.7z&#10;&#9;&#9; M209,404.5c0.2,0.2,0,0.4-0.1,0.6C208.8,405,209,404.7,209,404.5z M207.8,404.8c0,0.2,0,0.5-0.2,0.6&#10;&#9;&#9;C207.8,405.1,207.4,404.9,207.8,404.8z M207.8,405.8c-0.1,0.2-0.2,0.3-0.5,0.3C207.4,405.9,207.6,405.8,207.8,405.8z M207.7,405.6&#10;&#9;&#9;c-0.1,0.1-0.3,0.2-0.4,0.2C207.3,405.6,207.6,405.7,207.7,405.6z M207.5,406.2c0,0.2-0.1,0.3-0.3,0.3c0.1-0.1,0.1-0.2,0.1-0.3&#10;&#9;&#9;H207.5z M207.7,406.5c0.2,0.1-0.2,0.2-0.4,0.2C207.3,406.6,207.6,406.7,207.7,406.5z M207.6,406.4c0.2-0.4,0.4-0.7,0.9-0.8&#10;&#9;&#9;c0,0.4-0.4,0.4-0.5,0.6C207.9,406,207.8,406.4,207.6,406.4z M208.4,405.2c0-0.2-0.2-0.1-0.2-0.2c0.1-0.2,0.3-0.3,0.3-0.5&#10;&#9;&#9;c-0.2,0.2,0-0.2-0.1-0.4c0.1,0,0.2-0.2,0.4-0.1c0,0.2,0,0.3-0.2,0.4c0,0.1,0.1,0,0.2,0.1C208.7,404.7,208.7,405.1,208.4,405.2z&#10;&#9;&#9; M208.2,404.1c0.1,0.2,0,0.6-0.1,0.7C207.9,404.6,207.9,404.3,208.2,404.1z M208.6,403.5c0,0.1-0.1,0.3-0.2,0.3&#10;&#9;&#9;C208.3,403.7,208.4,403.5,208.6,403.5z M208.3,403.3v-0.2c0.2-0.1,0.1,0.2,0.2,0.2C208.5,403.3,208.4,403.3,208.3,403.3z&#10;&#9;&#9; M209.1,405.1c0.1,0.2-0.2,0.6-0.4,0.8C208.6,405.7,208.9,405.3,209.1,405.1z M208.8,402.4c0,0.3-0.4,0.2-0.4,0.5&#10;&#9;&#9;c-0.2,0-0.3,0-0.4,0.1c0-0.2,0.1-0.2,0.1-0.4C208.4,402.7,208.4,402.4,208.8,402.4z M207.9,402.3v0.3c-0.3-0.1-0.1,0.3-0.4,0.3&#10;&#9;&#9;c0.1-0.2,0.2-0.3,0.2-0.6H207.9z M207.8,403.3c0.3,0,0.5,0,0.5,0.3c-0.3,0.2-0.2,0.6-0.5,0.8c-0.1-0.1-0.1-0.3-0.2-0.4&#10;&#9;&#9;c-0.1,0.1-0.1,0.2-0.1,0.4c-0.1-0.2,0.1-0.3-0.3-0.3C207.5,403.8,207.7,403.6,207.8,403.3z M207.2,404.1c0.2,0.1,0.2,0.5-0.1,0.5&#10;&#9;&#9;C207.2,404.6,207.2,404.3,207.2,404.1z M207.9,407.1c-0.1,0,0-0.2-0.1-0.2c-0.1,0.1,0,0.2-0.1,0.3h-0.1c0-0.1,0-0.2-0.1-0.2&#10;&#9;&#9;c-0.1,0,0,0.1,0,0.2h-0.2c0,0-0.1,0-0.1,0h-0.1c0-0.1,0.1-0.1,0-0.2c0-0.1,0.3,0.1,0.3-0.1c-0.1-0.2-0.1,0.1-0.3,0&#10;&#9;&#9;c0-0.2,0.3,0,0.4-0.2c0.2,0.1-0.1,0.2,0.1,0.3c0.1-0.1,0.1-0.4,0.4-0.3C208,406.9,207.9,406.9,207.9,407.1z M208.1,406.7h-0.2&#10;&#9;&#9;c0-0.2,0.2,0,0.2-0.2C208.2,406.5,208.1,406.6,208.1,406.7z M208.4,407c0,0.1-0.1,0.2-0.1,0.3h-0.1c0-0.2,0-0.6,0.2-0.6&#10;&#9;&#9;c0.1,0.2,0.1,0.3,0.1,0.5C208.2,407.1,208.5,407,208.4,407z M209.6,407.2h-0.1c0-0.2,0.1-0.3,0-0.5c0,0,0.1,0,0.1-0.1V407.2z&#10;&#9;&#9; M209.6,406.4c-0.2,0.2-0.3,0.3-0.6,0.5v-0.4c-0.2,0.2-0.1,0.5-0.2,0.7h-0.2c0-0.2,0.3-0.4,0.2-0.7c-0.2,0,0,0.4-0.2,0.4&#10;&#9;&#9;c0.1-0.1-0.2-0.2-0.1-0.5c0.3-0.2,0.7-0.3,1.1-0.4V406.4z M228.7,402.3h-14.5v3.2h-2.9c0.1-0.2,0.1-0.3,0.2-0.5&#10;&#9;&#9;c-0.1,0.2-0.2,0.4-0.3,0.5h-0.5c0.3-0.4,0.6-0.7,0.6-1.3c-0.3,0.2-0.2,0.8-0.7,0.9V404c-0.2,0.4,0,1.1-0.2,1.5h-0.1&#10;&#9;&#9;c0.1-0.2,0.2-0.3,0.1-0.6c-0.1,0.2-0.1,0.4-0.2,0.6h-0.2c0-0.2,0-0.5,0-0.8c-0.1,0.2-0.1,0.5-0.1,0.8h-0.3v0.4&#10;&#9;&#9;c-0.3,0.1-0.6,0.2-0.9,0.3c0.6-0.9,1-2,1.5-3c0.6-0.3,1.2-0.8,1.1-1.6c-0.1,0.7-0.4,1.2-0.9,1.5c-0.2-0.1,0.1-0.3,0.1-0.5&#10;&#9;&#9;c-0.1,0-0.1,0.2-0.2,0.3c-0.1,0,0.1-0.5,0.3-0.6c-0.1,0-0.2,0.1-0.2,0.2c-0.1,0,0-0.2-0.1-0.3c-0.1,0.1,0,0.5-0.3,0.4&#10;&#9;&#9;c-0.1-0.3,0.2-0.8,0.4-1.1c-0.3,0.2-0.1-0.9,0.1-1.2c-0.1-0.1-0.2-0.1-0.2-0.2c-0.2,0.5-0.4,1-0.6,1.5c-0.2-0.1-0.3,0.2-0.2-0.1&#10;&#9;&#9;c-0.2,0.1,0,0.1,0,0.3c-0.1-0.1-0.1,0-0.2,0.1c-0.1-0.1-0.1-0.4-0.1-0.6c0.1,0,0.1,0.1,0.2,0.1c-0.3-0.7,0.5-1.1,0.4-1.9&#10;&#9;&#9;c-0.1,0.2-0.2,0.6-0.2,0.9c-0.2-0.1-0.1-0.2,0-0.4c-0.2,0-0.2,0.4-0.4,0.2c0.1,0.7-0.3,1.2-0.7,1.5c0-0.2-0.1-0.3-0.2-0.4&#10;&#9;&#9;c0-0.3,0.1-0.5,0.4-0.6c-0.1-0.2-0.1-0.3,0.1-0.5c-0.3-0.2,0.2-1,0-1.4c-0.2,0,0.1,0.5-0.2,0.4c0.4,0.3-0.3,1-0.2,1.4&#10;&#9;&#9;c-0.2-0.4,0.1-0.8-0.1-1.1c-0.1,0.4-0.1,0.9-0.1,1.4c-0.2-0.2-0.1,0.2-0.2,0.4c0-0.1-0.3,0.3-0.2,0.4c-0.2-0.1-0.4-0.6-0.2-0.8&#10;&#9;&#9;c-0.1-0.1-0.1-0.1-0.2-0.2c0.2-0.3,0.3-0.8,0.4-1.2c0,0.2-0.4,0.3-0.2,0.5c-0.1,0.1-0.3-0.2-0.2-0.4c-0.3,0-0.3,0.4-0.5,0.4&#10;&#9;&#9;c0.1-0.2,0.3-0.4,0.2-0.7c0.3,0.1,0.4-0.3,0.6-0.1c0.1-0.4,0.4-0.5,0.5-0.9c-0.2,0.1-0.2,0.4-0.4,0.5c-0.2,0,0-0.3-0.1-0.2&#10;&#9;&#9;c0,0.3,0,0.6-0.5,0.6V399c-0.2,0.1-0.1,0.4-0.2,0.5h-0.2c0.2-0.7,1-0.8,1.1-1.7c0.4,0.1,0.8,0.2,1.2,0.4c5.4,1.5,10.6,2,15.5,1.7&#10;&#9;&#9;c1.5-0.1,3-0.3,4.4-0.6V402.3z M210.1,401c-0.2,0,0-0.4-0.1-0.2c-0.2-0.1,0.1-0.3,0.1-0.5C210.2,400.2,210.1,400.8,210.1,401z&#10;&#9;&#9; M275.5,329.9h-7.7l7.5-7.5h0.2V329.9z M276.8,329.9v-7.5h0.7v-0.1l8.3,7.5H276.8z M377.4,375.7l-0.1-3l3,3H377.4z M449.2,438.8&#10;&#9;&#9;h-0.9v-10.6h0.9V438.8z M451,438.8h-0.9v-10.6h0.9V438.8z M451,412.3h-7.5v-1.9h-6.1v-1.8c2,0,3.9-0.1,5.7-0.4&#10;&#9;&#9;c2.8-0.5,5.3-1.3,7.4-2.6c0.2-0.1,0.4-0.2,0.6-0.4V412.3z M510,437.4h-0.3v-14.7h0.3c0,0.1,0,0.1,0,0.1V437.4z M553.2,445.3&#10;&#9;&#9;c0-0.1-0.1-0.1-0.1-0.2c-0.2,0,0.1,0.2-0.1,0.2c-0.1-0.1,0-0.3-0.1-0.3c0,0,0,0.1,0,0.1v-0.2c0-0.1,0-0.1,0-0.2v-0.2&#10;&#9;&#9;c0.1,0.2,0.4,0.3,0.4,0.5c0-0.1,0.1-0.1,0.1-0.1c0,0-0.1,0.3,0,0.2c-0.1-0.1,0.1-0.1,0.1-0.1C553.5,445.2,553.3,445.2,553.2,445.3z&#10;&#9;&#9;" style="fill-rule: evenodd; clip-rule: evenodd; fill: rgb(255, 255, 255);" transform="matrix(1, 0, 0, 1, 0, -284.6184387207031)"/>
</svg>